<svg width="236" height="300" viewBox="0 0 236 300" fill="none" xmlns="http://www.w3.org/2000/svg">
<mask id="mask0_55_178" style="mask-type:alpha" maskUnits="userSpaceOnUse" x="0" y="0" width="236" height="300">
<rect width="236" height="300" rx="32" fill="#5543A5"/>
</mask>
<g mask="url(#mask0_55_178)">
<circle opacity="0.5" cx="178" cy="262" r="123" fill="#7C6BC4"/>
<path d="M133.959 255.548C132.67 254.631 132.486 249.674 137.826 248.756C141.14 248.206 150.347 251.51 154.583 253.713C154.951 255.548 155.135 257.2 154.03 258.669C152.741 260.137 150.531 260.321 148.69 260.137C145.191 259.77 136.168 257.2 133.959 255.548Z" fill="#D58F77"/>
<path d="M159.739 251.51C158.081 250.041 158.818 244.901 163.053 244.718C166.183 244.718 170.971 250.776 174.838 253.162C175.022 254.814 175.022 256.466 173.733 257.751C172.444 259.036 170.419 258.852 168.577 258.485C165.447 257.935 161.58 253.345 159.739 251.51Z" fill="#D58F77"/>
<path d="M134.143 254.079C132.854 253.162 132.486 249.123 137.826 248.389C141.14 247.838 150.347 250.225 154.583 252.427C154.951 254.263 155.135 255.915 154.03 257.384C152.741 258.852 150.532 259.036 148.69 258.852C145.191 258.118 136.353 255.732 134.143 254.079Z" fill="#263045"/>
<path d="M159.739 249.674C158.634 248.573 158.634 244.901 163.79 244.718C166.92 244.534 171.155 249.123 174.838 251.51C175.022 253.162 175.022 254.814 173.733 256.099C172.444 257.384 170.419 257.2 168.577 256.833C165.447 256.099 161.58 251.51 159.739 249.674Z" fill="#263045"/>
<path d="M155.319 222.506C153.109 223.424 151.452 225.26 151.084 227.463C148.506 237.926 144.823 250.959 144.823 252.978C144.639 254.814 147.217 256.282 148.874 256.65C152.373 257.384 153.294 256.833 154.398 255.548C154.951 254.814 163.421 234.622 166.184 217.55C162.685 220.12 159.002 221.038 155.319 222.506Z" fill="#1E2940"/>
<path d="M165.999 215.347C166.368 231.685 164.895 250.959 165.447 252.978C166.552 255.732 174.102 256.282 174.654 253.896C174.838 252.795 178.337 232.419 178.153 210.942C173.918 213.328 170.051 212.41 165.999 215.347Z" fill="#1F2A40"/>
<path d="M206.511 237.191L166.184 213.879L166 157.891L206.327 181.204L206.511 237.191Z" fill="#C6C6C6"/>
<path d="M134.327 217.183L94 193.87L171.708 149.264L212.035 172.393L134.327 217.183Z" fill="white"/>
<path d="M134.327 278.494L94.1841 255.365L94 193.87L134.327 217.183V278.494Z" fill="#EBECF3"/>
<path d="M212.035 172.393V233.888L206.511 237.192L206.327 181.204L139.851 219.386L140.036 275.373L134.327 278.494V217.183L212.035 172.393Z" fill="#DDDDE1"/>
<path d="M186.439 178.818L169.13 168.905V166.519L186.439 176.615V178.818Z" fill="#3A4B8F"/>
<path d="M186.892 175.535L169.583 165.623L182.204 158.258L199.513 168.171L186.892 175.535Z" fill="#5971CF"/>
<path d="M186.439 176.615L169.13 166.703C169.13 166.335 169.498 165.785 169.866 165.601L187.176 175.514C186.623 175.697 186.439 176.064 186.439 176.615Z" fill="#4C61B4"/>
<path d="M186.992 179.185C186.623 179.368 186.255 179.185 186.255 178.818V176.431C186.255 176.064 186.623 175.513 186.992 175.33L199.513 168.171V168.538L199.145 168.722L198.408 170.374L199.145 171.659L199.513 171.842V172.026L186.992 179.185Z" fill="#4F63A3"/>
<path d="M186.623 178.818C186.623 179.001 186.623 179.001 186.623 179.001H186.807L199.329 171.842L198.961 171.659L198.224 170.557L198.961 168.722L186.992 175.697C186.807 175.697 186.623 175.881 186.623 176.064C186.439 176.248 186.439 176.431 186.439 176.615L186.623 178.818Z" fill="#5E71BA"/>
<path d="M199.145 168.722L187.176 175.697C186.992 175.697 186.807 175.881 186.807 176.064C186.623 176.248 186.623 176.431 186.623 176.615V178.818L199.145 171.659V168.722Z" fill="#FFFFFA"/>
<path d="M186.807 174.596L169.498 164.5V162.297L186.807 172.209V174.596Z" fill="#7735B5"/>
<path d="M187.544 171.108L170.235 161.196L182.572 153.853L199.881 163.949L187.544 171.108Z" fill="#AD56FF"/>
<path d="M186.807 172.21L169.498 162.297C169.498 161.93 169.866 161.379 170.235 161.196L187.544 171.108C187.176 171.292 186.807 171.842 186.807 172.21Z" fill="#913FDD"/>
<path d="M187.544 174.963C187.176 175.147 186.807 174.963 186.807 174.596V172.21C186.807 171.842 187.176 171.292 187.544 171.108L200.066 163.949V164.316L199.697 164.5L198.961 166.152L199.697 167.437L200.066 167.62V167.804L187.544 174.963Z" fill="#7735B5"/>
<path d="M186.992 174.596C186.992 174.779 186.992 174.779 186.992 174.779H187.176L199.697 167.62L199.329 167.437L198.592 166.335L199.329 164.5L187.36 171.475C187.176 171.475 186.992 171.659 186.992 171.842C186.807 172.026 186.807 172.209 186.807 172.393L186.992 174.596Z" fill="#7735B5"/>
<path d="M199.513 164.316L187.544 171.292C187.36 171.292 187.176 171.475 187.176 171.659C186.991 171.842 186.991 172.026 186.991 172.21V174.412L199.513 167.253V164.316Z" fill="#FFFFFA"/>
<path d="M177.785 160.645L182.02 158.259L181.836 158.075L177.601 160.461L177.785 160.645Z" fill="#E9BFE1"/>
<path d="M177.785 162.113L184.414 158.258L184.046 157.891L177.416 161.746L177.785 162.113Z" fill="#E9BFE1"/>
<path d="M178.89 162.664L185.519 158.809L185.15 158.626L178.521 162.48L178.89 162.664Z" fill="#E9BFE1"/>
<path d="M179.626 181.021L171.339 176.248C171.155 176.064 170.787 176.064 170.603 176.248L144.823 191.117C144.639 191.117 144.639 191.3 144.639 191.3V192.402C144.639 192.402 144.639 192.585 144.823 192.585L153.109 197.358C153.294 197.542 153.662 197.542 153.846 197.358L179.626 182.489C179.81 182.489 179.81 182.306 179.81 182.306V181.388C179.626 181.021 179.626 181.021 179.626 181.021Z" fill="#172030"/>
<path d="M152.925 186.344L144.639 191.117C144.455 191.117 144.455 191.301 144.455 191.301V192.402C144.455 192.402 144.455 192.585 144.639 192.585L152.925 197.358V186.344Z" fill="#172030"/>
<path d="M179.626 181.388L153.846 196.256C153.662 196.44 153.294 196.44 153.109 196.256L144.823 191.484C144.639 191.3 144.639 191.117 144.823 190.933L170.603 176.064C170.787 175.881 171.155 175.881 171.339 176.064L179.626 180.837C179.81 181.021 179.81 181.204 179.626 181.388Z" fill="#1E2A3D"/>
<path opacity="0.9" d="M148.138 191.484L147.033 192.035C146.849 192.035 146.664 192.035 146.664 192.035L145.56 191.484C145.375 191.484 145.375 191.3 145.56 191.3L146.664 190.75C146.849 190.75 147.033 190.75 147.033 190.75L147.953 191.3C148.138 191.3 148.138 191.3 148.138 191.484ZM149.979 190.199L149.058 189.648C148.874 189.648 148.69 189.648 148.69 189.648L147.401 190.199C147.217 190.199 147.217 190.382 147.401 190.382L148.322 190.933C148.506 190.933 148.69 190.933 148.69 190.933L149.795 190.382C149.979 190.382 149.979 190.199 149.979 190.199ZM151.636 189.097L150.716 188.547C150.531 188.547 150.347 188.547 150.347 188.547L149.242 189.281C149.058 189.281 149.058 189.465 149.242 189.465L150.163 190.015C150.347 190.015 150.531 190.015 150.531 190.015L151.636 189.465C151.82 189.281 151.82 189.097 151.636 189.097ZM153.478 188.18L152.557 187.629C152.373 187.629 152.189 187.629 152.189 187.629L151.084 188.18C150.9 188.18 150.9 188.363 151.084 188.363L152.005 188.914C152.189 188.914 152.373 188.914 152.373 188.914L153.478 188.363C153.662 188.18 153.662 188.18 153.478 188.18ZM155.319 187.078L154.398 186.528C154.214 186.528 154.03 186.528 154.03 186.528L152.925 187.078C152.741 187.078 152.741 187.262 152.925 187.262L153.846 187.813C154.03 187.813 154.214 187.813 154.214 187.813L155.319 187.262V187.078ZM157.161 185.977L156.24 185.426C156.056 185.426 155.872 185.426 155.872 185.426L154.767 185.977C154.583 185.977 154.583 186.16 154.767 186.16L155.687 186.711C155.872 186.711 156.056 186.711 156.056 186.711L157.161 186.16C157.161 186.16 157.161 186.16 157.161 185.977ZM158.818 185.059L157.897 184.508C157.713 184.508 157.529 184.508 157.529 184.508L156.424 185.059C156.24 185.059 156.24 185.243 156.424 185.243L157.345 185.793C157.529 185.793 157.713 185.793 157.713 185.793L158.818 185.243C159.002 185.059 159.002 185.059 158.818 185.059ZM160.659 183.958L159.739 183.407C159.554 183.407 159.37 183.407 159.37 183.407L158.265 183.958C158.081 183.958 158.081 184.141 158.265 184.141L159.186 184.692C159.37 184.692 159.554 184.692 159.554 184.692L160.659 184.141C160.843 184.141 160.843 183.958 160.659 183.958ZM162.501 182.856L161.58 182.306C161.396 182.306 161.212 182.306 161.212 182.306L160.107 182.856C159.923 182.856 159.923 183.04 160.107 183.04L161.028 183.591C161.212 183.591 161.396 183.591 161.396 183.591L162.501 183.04C162.685 183.04 162.685 183.04 162.501 182.856ZM164.895 181.571L163.974 181.021C163.79 181.021 163.606 181.021 163.606 181.021L161.948 181.938C161.764 181.938 161.764 182.122 161.948 182.122L162.869 182.673C163.053 182.673 163.237 182.673 163.237 182.673L164.895 181.755V181.571ZM172.628 182.856L171.708 182.306C171.524 182.306 171.339 182.306 171.339 182.306L170.235 182.856C170.05 182.856 170.05 183.04 170.235 183.04L171.155 183.591C171.339 183.591 171.524 183.591 171.524 183.591L172.628 183.04C172.628 182.856 172.628 182.856 172.628 182.856ZM174.47 181.755L173.549 181.204C173.365 181.204 173.181 181.204 173.181 181.204L171.892 181.755C171.708 181.755 171.708 181.938 171.892 181.938L172.813 182.489C172.997 182.489 173.181 182.489 173.181 182.489L174.286 181.938C174.47 181.938 174.47 181.755 174.47 181.755ZM176.127 180.653L175.206 180.103C175.022 180.103 174.838 180.103 174.838 180.103L173.733 180.653C173.549 180.653 173.549 180.837 173.733 180.837L174.654 181.388C174.838 181.388 175.022 181.388 175.022 181.388L176.127 180.837C176.311 180.837 176.311 180.837 176.127 180.653ZM174.286 183.774L173.365 183.223C173.181 183.223 172.997 183.223 172.997 183.223L171.892 183.774C171.708 183.774 171.708 183.958 171.892 183.958L172.813 184.508C172.997 184.508 173.181 184.508 173.181 184.508L174.286 183.958V183.774ZM176.127 182.673L175.022 182.122C174.838 182.122 174.654 182.122 174.654 182.122L173.549 182.673C173.365 182.673 173.365 182.856 173.549 182.856L174.47 183.407C174.654 183.407 174.838 183.407 174.838 183.407L175.943 182.856C176.127 182.856 176.127 182.673 176.127 182.673ZM177.784 181.571L176.864 181.021C176.68 181.021 176.495 181.021 176.495 181.021L175.391 181.755C175.206 181.755 175.206 181.938 175.391 181.938L176.311 182.489C176.495 182.489 176.68 182.489 176.68 182.489L177.784 181.938C177.969 181.755 177.969 181.755 177.784 181.571ZM150.347 191.851L149.427 191.3C149.242 191.3 149.058 191.3 149.058 191.3L147.401 192.218C147.217 192.218 147.217 192.402 147.401 192.402L148.322 192.952C148.506 192.952 148.69 192.952 148.69 192.952L150.347 192.035C150.531 192.035 150.531 191.851 150.347 191.851ZM152.189 190.75L151.268 190.199C151.084 190.199 150.9 190.199 150.9 190.199L149.795 190.933C149.611 190.933 149.611 191.117 149.795 191.117L150.716 191.667C150.9 191.667 151.084 191.667 151.084 191.667L152.189 191.117C152.189 190.933 152.189 190.75 152.189 190.75ZM154.03 189.648L152.925 189.097C152.741 189.097 152.557 189.097 152.557 189.097L151.452 189.648C151.268 189.648 151.268 189.832 151.452 189.832L152.373 190.382C152.557 190.382 152.741 190.382 152.741 190.382L153.846 189.832C154.03 189.832 154.03 189.832 154.03 189.648ZM155.687 188.73L154.767 188.18C154.583 188.18 154.398 188.18 154.398 188.18L153.294 188.73C153.109 188.73 153.109 188.914 153.294 188.914L154.214 189.465C154.398 189.465 154.583 189.465 154.583 189.465L155.687 188.914C155.872 188.914 155.872 188.73 155.687 188.73ZM157.529 187.629L156.608 187.078C156.424 187.078 156.24 187.078 156.24 187.078L155.135 187.629C154.951 187.629 154.951 187.813 155.135 187.813L156.056 188.363C156.24 188.363 156.424 188.363 156.424 188.363L157.529 187.813C157.713 187.813 157.713 187.629 157.529 187.629ZM159.37 186.711L158.45 186.16C158.265 186.16 158.081 186.16 158.081 186.16L156.976 186.711C156.792 186.711 156.792 186.895 156.976 186.895L157.897 187.445C158.081 187.445 158.265 187.445 158.265 187.445L159.37 186.895C159.37 186.711 159.37 186.711 159.37 186.711ZM161.212 185.61L160.291 185.059C160.107 185.059 159.923 185.059 159.923 185.059L158.818 185.61C158.634 185.61 158.634 185.793 158.818 185.793L159.739 186.344C159.923 186.344 160.107 186.344 160.107 186.344L161.212 185.793V185.61ZM162.869 184.508L161.948 183.958C161.764 183.958 161.58 183.958 161.58 183.958L160.475 184.508C160.291 184.508 160.291 184.692 160.475 184.692L161.396 185.243C161.58 185.243 161.764 185.243 161.764 185.243L162.869 184.692C163.053 184.692 163.053 184.692 162.869 184.508ZM164.71 183.591L163.79 183.04C163.606 183.04 163.421 183.04 163.421 183.04L162.317 183.591C162.132 183.591 162.132 183.774 162.317 183.774L163.237 184.325C163.421 184.325 163.606 184.325 163.606 184.325L164.71 183.774C164.895 183.591 164.895 183.591 164.71 183.591ZM166.552 182.489L165.631 181.938C165.447 181.938 165.263 181.938 165.263 181.938L164.158 182.489C163.974 182.489 163.974 182.673 164.158 182.673L165.079 183.223C165.263 183.223 165.447 183.223 165.447 183.223L166.552 182.673C166.736 182.673 166.736 182.489 166.552 182.489ZM151.452 193.136L150.531 192.585C150.347 192.585 150.163 192.585 150.163 192.585L149.058 193.136C148.874 193.136 148.874 193.319 149.058 193.319L149.979 193.87C150.163 193.87 150.347 193.87 150.347 193.87L151.452 193.319V193.136ZM153.109 192.035L152.189 191.484C152.005 191.484 151.82 191.484 151.82 191.484L150.716 192.035C150.531 192.035 150.531 192.218 150.716 192.218L151.636 192.769C151.82 192.769 152.005 192.769 152.005 192.769L153.109 192.218C153.294 192.218 153.294 192.035 153.109 192.035ZM154.951 190.933L154.03 190.382C153.846 190.382 153.662 190.382 153.662 190.382L152.557 190.933C152.373 190.933 152.373 191.117 152.557 191.117L153.478 191.667C153.662 191.667 153.846 191.667 153.846 191.667L154.951 191.117C155.135 191.117 155.135 191.117 154.951 190.933ZM156.792 190.015L155.872 189.465C155.687 189.465 155.503 189.465 155.503 189.465L154.398 190.015C154.214 190.015 154.214 190.199 154.398 190.199L155.319 190.75C155.503 190.75 155.687 190.75 155.687 190.75L156.792 190.199V190.015ZM154.583 194.972L153.662 194.421C153.478 194.421 153.294 194.421 153.294 194.421L152.189 194.972C152.005 194.972 152.005 195.155 152.189 195.155L153.109 195.706C153.294 195.706 153.478 195.706 153.478 195.706L154.583 195.155C154.767 195.155 154.767 194.972 154.583 194.972ZM156.424 193.87L155.503 193.319C155.319 193.319 155.135 193.319 155.135 193.319L154.03 193.87C153.846 193.87 153.846 194.054 154.03 194.054L154.951 194.604C155.135 194.604 155.319 194.604 155.319 194.604L156.424 194.054C156.608 194.054 156.608 194.054 156.424 193.87ZM158.265 192.952L157.345 192.402C157.161 192.402 156.976 192.402 156.976 192.402L155.872 192.952C155.687 192.952 155.687 193.136 155.872 193.136L156.792 193.687C156.976 193.687 157.161 193.687 157.161 193.687L158.265 193.136V192.952ZM160.107 191.851L159.186 191.3C159.002 191.3 158.818 191.3 158.818 191.3L157.713 191.851C157.529 191.851 157.529 192.035 157.713 192.035L158.45 192.769C158.634 192.769 158.818 192.769 158.818 192.769L159.923 192.218C160.107 192.035 160.107 191.851 160.107 191.851ZM171.339 185.243L170.419 184.692C170.235 184.692 170.05 184.692 170.05 184.692L168.393 185.61C168.209 185.61 168.209 185.793 168.393 185.793L169.314 186.344C169.498 186.344 169.682 186.344 169.682 186.344L171.339 185.426C171.524 185.426 171.524 185.426 171.339 185.243ZM158.634 188.914L157.713 188.363C157.529 188.363 157.345 188.363 157.345 188.363L156.056 189.097C155.872 189.097 155.872 189.281 156.056 189.281L156.976 189.832C157.161 189.832 157.345 189.832 157.345 189.832L158.45 189.281C158.634 189.097 158.634 188.914 158.634 188.914ZM160.291 187.813L159.37 187.262C159.186 187.262 159.002 187.262 159.002 187.262L157.897 187.813C157.713 187.813 157.713 187.996 157.897 187.996L158.818 188.547C159.002 188.547 159.186 188.547 159.186 188.547L160.291 187.996C160.475 187.996 160.475 187.996 160.291 187.813ZM162.132 186.895L161.212 186.344C161.028 186.344 160.843 186.344 160.843 186.344L159.739 186.895C159.554 186.895 159.554 187.078 159.739 187.078L160.659 187.629C160.843 187.629 161.028 187.629 161.028 187.629L162.132 187.078C162.317 187.078 162.317 186.895 162.132 186.895ZM163.974 185.793L163.053 185.243C162.869 185.243 162.685 185.243 162.685 185.243L161.58 185.793C161.396 185.793 161.396 185.977 161.58 185.977L162.501 186.528C162.685 186.528 162.869 186.528 162.869 186.528L163.974 185.977C163.974 185.977 163.974 185.977 163.974 185.793ZM165.815 184.875L164.895 184.325C164.71 184.325 164.526 184.325 164.526 184.325L163.421 184.875C163.237 184.875 163.237 185.059 163.421 185.059L164.342 185.61C164.526 185.61 164.71 185.61 164.71 185.61L165.815 185.059C165.815 184.875 165.815 184.875 165.815 184.875ZM168.209 183.407L167.288 182.856C167.104 182.856 166.92 182.856 166.92 182.856L165.263 183.774C165.079 183.774 165.079 183.958 165.263 183.958L166.184 184.508C166.368 184.508 166.552 184.508 166.552 184.508L168.209 183.591V183.407ZM153.662 193.687L152.741 193.136C152.557 193.136 152.373 193.136 152.373 193.136L150.716 194.054C150.531 194.054 150.531 194.237 150.716 194.237L151.636 194.788C151.82 194.788 152.005 194.788 152.005 194.788L153.662 193.87V193.687ZM155.503 192.585L154.583 192.035C154.398 192.035 154.214 192.035 154.214 192.035L152.925 192.769C152.741 192.769 152.741 192.952 152.925 192.952L153.846 193.503C154.03 193.503 154.214 193.503 154.214 193.503L155.319 192.952C155.503 192.769 155.503 192.769 155.503 192.585ZM157.161 191.667L156.24 191.117C156.056 191.117 155.872 191.117 155.872 191.117L154.767 191.667C154.583 191.667 154.583 191.851 154.767 191.851L155.687 192.402C155.872 192.402 156.056 192.402 156.056 192.402L157.161 191.851C157.345 191.851 157.345 191.667 157.161 191.667ZM159.002 190.566L158.081 190.015C157.897 190.015 157.713 190.015 157.713 190.015L156.608 190.75C156.424 190.75 156.424 190.933 156.608 190.933L157.529 191.484C157.713 191.484 157.897 191.484 157.897 191.484L159.002 190.933C159.186 190.75 159.186 190.566 159.002 190.566ZM160.843 189.465L159.923 188.914C159.739 188.914 159.554 188.914 159.554 188.914L158.45 189.648C158.265 189.648 158.265 189.832 158.45 189.832L159.37 190.382C159.554 190.382 159.739 190.382 159.739 190.382L160.843 189.832C160.843 189.648 160.843 189.648 160.843 189.465ZM169.13 186.711L168.209 186.16C168.025 186.16 167.841 186.16 167.841 186.16L159.37 190.933C159.186 190.933 159.186 191.117 159.37 191.117L160.291 191.667C160.475 191.667 160.659 191.667 160.659 191.667L168.946 186.895C169.13 186.895 169.13 186.711 169.13 186.711ZM162.685 188.547L161.764 187.996C161.58 187.996 161.396 187.996 161.396 187.996L160.291 188.547C160.107 188.547 160.107 188.73 160.291 188.73L161.212 189.281C161.396 189.281 161.58 189.281 161.58 189.281L162.685 188.73V188.547ZM164.342 187.445L163.421 186.895C163.237 186.895 163.053 186.895 163.053 186.895L161.948 187.445C161.764 187.445 161.764 187.629 161.948 187.629L162.869 188.18C163.053 188.18 163.237 188.18 163.237 188.18L164.342 187.629C164.526 187.629 164.526 187.445 164.342 187.445ZM166.184 186.344L165.263 185.793C165.079 185.793 164.895 185.793 164.895 185.793L163.79 186.344C163.606 186.344 163.606 186.528 163.79 186.528L164.71 187.078C164.895 187.078 165.079 187.078 165.079 187.078L166.184 186.528C166.368 186.528 166.368 186.528 166.184 186.344ZM168.025 185.426L167.104 184.875C166.92 184.875 166.736 184.875 166.736 184.875L165.631 185.426C165.447 185.426 165.447 185.61 165.631 185.61L166.552 186.16C166.736 186.16 166.92 186.16 166.92 186.16L168.025 185.61C168.209 185.61 168.209 185.426 168.025 185.426ZM169.866 184.325L168.946 183.774C168.761 183.774 168.577 183.774 168.577 183.774L167.473 184.325C167.288 184.325 167.288 184.508 167.473 184.508L168.393 185.059C168.577 185.059 168.761 185.059 168.761 185.059L169.866 184.508C169.866 184.508 169.866 184.508 169.866 184.325ZM167.657 179.919L166.736 179.369C166.552 179.369 166.368 179.369 166.368 179.369L165.263 179.919C165.079 179.919 165.079 180.103 165.263 180.103L166.184 180.653C166.368 180.653 166.552 180.653 166.552 180.653L167.657 180.103C167.841 180.103 167.841 179.919 167.657 179.919ZM169.498 178.818L168.577 178.267C168.393 178.267 168.209 178.267 168.209 178.267L167.104 178.818C166.92 178.818 166.92 179.001 167.104 179.001L168.025 179.552C168.209 179.552 168.393 179.552 168.393 179.552L169.498 179.001C169.498 179.001 169.498 179.001 169.498 178.818ZM171.339 177.9L170.419 177.349C170.235 177.349 170.05 177.349 170.05 177.349L168.946 177.9C168.761 177.9 168.761 178.084 168.946 178.084L169.866 178.634C170.05 178.634 170.235 178.634 170.235 178.634L171.339 178.084V177.9ZM172.997 178.818L172.076 178.267C171.892 178.267 171.708 178.267 171.708 178.267L170.603 178.818C170.419 178.818 170.419 179.001 170.603 179.001L171.524 179.552C171.708 179.552 171.892 179.552 171.892 179.552L172.997 179.001V178.818ZM174.47 179.736L173.549 179.185C173.549 179.185 173.365 179.185 173.181 179.185L171.524 180.103H171.339L170.05 179.369C169.866 179.369 169.682 179.369 169.498 179.369L166.736 181.021C166.552 181.021 166.552 181.204 166.736 181.388L169.13 182.856C169.314 182.856 169.498 182.856 169.682 182.856L174.286 180.103C174.654 179.919 174.654 179.736 174.47 179.736Z" fill="#263144"/>
<path d="M148.138 191.301L147.033 191.851C146.849 191.851 146.664 191.851 146.664 191.851L145.56 191.301C145.375 191.301 145.375 191.117 145.56 191.117L146.664 190.566C146.849 190.566 147.033 190.566 147.033 190.566L147.953 191.117C148.138 191.117 148.138 191.117 148.138 191.301ZM149.979 190.016L149.058 189.465C148.874 189.465 148.69 189.465 148.69 189.465L147.401 190.016C147.217 190.016 147.217 190.199 147.401 190.199L148.322 190.75C148.506 190.75 148.69 190.75 148.69 190.75L149.795 190.199C149.979 190.199 149.979 190.016 149.979 190.016ZM151.636 188.914L150.716 188.364C150.531 188.364 150.347 188.364 150.347 188.364L149.242 189.098C149.058 189.098 149.058 189.281 149.242 189.281L150.163 189.832C150.347 189.832 150.531 189.832 150.531 189.832L151.636 189.281C151.82 189.098 151.82 189.098 151.636 188.914ZM153.478 187.996L152.557 187.446C152.373 187.446 152.189 187.446 152.189 187.446L151.084 187.996C150.9 187.996 150.9 188.18 151.084 188.18L152.005 188.731C152.189 188.731 152.373 188.731 152.373 188.731L153.478 188.18C153.662 188.18 153.662 187.996 153.478 187.996ZM155.319 186.895L154.398 186.344C154.214 186.344 154.03 186.344 154.03 186.344L152.925 187.079C152.741 187.079 152.741 187.262 152.925 187.262L153.846 187.813C154.03 187.813 154.214 187.813 154.214 187.813L155.319 187.262C155.319 187.079 155.319 186.895 155.319 186.895ZM157.161 185.794L156.24 185.243C156.056 185.243 155.872 185.243 155.872 185.243L154.767 185.794C154.583 185.794 154.583 185.977 154.767 185.977L155.687 186.528C155.872 186.528 156.056 186.528 156.056 186.528L157.161 185.977C157.161 185.977 157.161 185.977 157.161 185.794ZM158.818 184.876L157.897 184.325C157.713 184.325 157.529 184.325 157.529 184.325L156.424 184.876C156.24 184.876 156.24 185.059 156.424 185.059L157.345 185.61C157.529 185.61 157.713 185.61 157.713 185.61L158.818 185.059C159.002 185.059 159.002 184.876 158.818 184.876ZM160.659 183.774L159.739 183.224C159.554 183.224 159.37 183.224 159.37 183.224L158.265 183.774C158.081 183.774 158.081 183.958 158.265 183.958L159.186 184.509C159.37 184.509 159.554 184.509 159.554 184.509L160.659 183.958C160.843 183.958 160.843 183.774 160.659 183.774ZM162.501 182.673L161.58 182.122C161.396 182.122 161.212 182.122 161.212 182.122L160.107 182.673C159.923 182.673 159.923 182.857 160.107 182.857L161.028 183.407C161.212 183.407 161.396 183.407 161.396 183.407L162.501 182.857C162.685 182.857 162.685 182.857 162.501 182.673ZM164.895 181.388L163.974 180.837C163.79 180.837 163.606 180.837 163.606 180.837L161.764 181.755C161.58 181.755 161.58 181.939 161.764 181.939L162.685 182.489C162.869 182.489 163.053 182.489 163.053 182.489L164.71 181.572C164.895 181.572 164.895 181.388 164.895 181.388ZM172.628 182.673L171.708 182.122C171.524 182.122 171.339 182.122 171.339 182.122L170.235 182.673C170.05 182.673 170.05 182.857 170.235 182.857L171.155 183.407C171.339 183.407 171.524 183.407 171.524 183.407L172.628 182.857V182.673ZM174.47 181.572L173.549 181.021C173.365 181.021 173.181 181.021 173.181 181.021L171.892 181.755C171.708 181.755 171.708 181.939 171.892 181.939L172.813 182.489C172.997 182.489 173.181 182.489 173.181 182.489L174.286 181.939C174.47 181.755 174.47 181.572 174.47 181.572ZM176.127 180.47L175.206 179.919C175.022 179.919 174.838 179.919 174.838 179.919L173.733 180.47C173.549 180.47 173.549 180.654 173.733 180.654L174.654 181.204C174.838 181.204 175.022 181.204 175.022 181.204L176.127 180.654C176.311 180.654 176.311 180.654 176.127 180.47ZM174.286 183.591L173.365 183.04C173.181 183.04 172.997 183.04 172.997 183.04L171.708 183.591C171.524 183.591 171.524 183.774 171.708 183.774L172.628 184.325C172.813 184.325 172.997 184.325 172.997 184.325L174.102 183.774C174.286 183.774 174.286 183.591 174.286 183.591ZM176.127 182.489L175.022 181.939C174.838 181.939 174.654 181.939 174.654 181.939L173.549 182.489C173.365 182.489 173.365 182.673 173.549 182.673L174.47 183.224C174.654 183.224 174.838 183.224 174.838 183.224L175.943 182.673C176.127 182.673 176.127 182.673 176.127 182.489ZM177.784 181.572L176.864 181.021C176.68 181.021 176.495 181.021 176.495 181.021L175.391 181.572C175.206 181.572 175.206 181.755 175.391 181.755L176.311 182.306C176.495 182.306 176.68 182.306 176.68 182.306L177.784 181.755C177.969 181.572 177.969 181.572 177.784 181.572ZM150.347 191.668L149.427 191.117C149.242 191.117 149.058 191.117 149.058 191.117L147.401 192.035C147.217 192.035 147.217 192.218 147.401 192.218L148.322 192.769C148.506 192.769 148.69 192.769 148.69 192.769L150.347 191.851C150.531 191.851 150.531 191.668 150.347 191.668ZM152.189 190.566L151.268 190.016C151.084 190.016 150.9 190.016 150.9 190.016L149.795 190.566C149.611 190.566 149.611 190.75 149.795 190.75L150.716 191.301C150.9 191.301 151.084 191.301 151.084 191.301L152.189 190.75C152.189 190.75 152.189 190.75 152.189 190.566ZM154.03 189.648L152.925 189.098C152.741 189.098 152.557 189.098 152.557 189.098L151.452 189.648C151.268 189.648 151.268 189.832 151.452 189.832L152.373 190.383C152.557 190.383 152.741 190.383 152.741 190.383L153.846 189.832C154.03 189.648 154.03 189.648 154.03 189.648ZM155.687 188.547L154.767 187.996C154.583 187.996 154.398 187.996 154.398 187.996L153.294 188.547C153.109 188.547 153.109 188.731 153.294 188.731L154.214 189.281C154.398 189.281 154.583 189.281 154.583 189.281L155.687 188.731C155.872 188.731 155.872 188.547 155.687 188.547ZM157.529 187.446L156.608 186.895C156.424 186.895 156.24 186.895 156.24 186.895L155.135 187.446C154.951 187.446 154.951 187.629 155.135 187.629L156.056 188.18C156.24 188.18 156.424 188.18 156.424 188.18L157.529 187.629C157.713 187.629 157.713 187.629 157.529 187.446ZM159.37 186.528L158.45 185.977C158.265 185.977 158.081 185.977 158.081 185.977L156.976 186.528C156.792 186.528 156.792 186.711 156.976 186.711L157.897 187.262C158.081 187.262 158.265 187.262 158.265 187.262L159.37 186.711V186.528ZM161.212 185.426L160.291 184.876C160.107 184.876 159.923 184.876 159.923 184.876L158.818 185.426C158.634 185.426 158.634 185.61 158.818 185.61L159.739 186.161C159.923 186.161 160.107 186.161 160.107 186.161L161.212 185.61V185.426ZM162.869 184.325L161.948 183.774C161.764 183.774 161.58 183.774 161.58 183.774L160.475 184.325C160.291 184.325 160.291 184.509 160.475 184.509L161.396 185.059C161.58 185.059 161.764 185.059 161.764 185.059L162.869 184.509C163.053 184.509 163.053 184.509 162.869 184.325ZM164.71 183.407L163.79 182.857C163.606 182.857 163.421 182.857 163.421 182.857L162.317 183.407C162.132 183.591 162.132 183.591 162.317 183.591L163.237 184.142C163.421 184.142 163.606 184.142 163.606 184.142L164.71 183.591C164.895 183.591 164.895 183.407 164.71 183.407ZM166.552 182.306L165.631 181.755C165.447 181.755 165.263 181.755 165.263 181.755L164.158 182.306C163.974 182.306 163.974 182.489 164.158 182.489L165.079 183.04C165.263 183.04 165.447 183.04 165.447 183.04L166.552 182.489C166.736 182.489 166.736 182.306 166.552 182.306ZM151.452 192.953L150.531 192.402C150.347 192.402 150.163 192.402 150.163 192.402L149.058 192.953C148.874 192.953 148.874 193.136 149.058 193.136L149.979 193.687C150.163 193.687 150.347 193.687 150.347 193.687L151.452 193.136V192.953ZM153.109 191.851L152.189 191.301C152.005 191.301 151.82 191.301 151.82 191.301L150.716 191.851C150.531 191.851 150.531 192.035 150.716 192.035L151.636 192.586C151.82 192.586 152.005 192.586 152.005 192.586L153.109 192.035C153.294 192.035 153.294 191.851 153.109 191.851ZM154.951 190.933L154.03 190.383C153.846 190.383 153.662 190.383 153.662 190.383L152.557 190.933C152.373 190.933 152.373 191.117 152.557 191.117L153.478 191.668C153.662 191.668 153.846 191.668 153.846 191.668L154.951 191.117C155.135 190.933 155.135 190.933 154.951 190.933ZM156.792 189.832L155.872 189.281C155.687 189.281 155.503 189.281 155.503 189.281L154.398 189.832C154.214 189.832 154.214 190.016 154.398 190.016L155.319 190.566C155.503 190.566 155.687 190.566 155.687 190.566L156.792 190.016V189.832ZM154.583 194.788L153.662 194.238C153.478 194.238 153.294 194.238 153.294 194.238L152.189 194.788C152.005 194.788 152.005 194.972 152.189 194.972L153.109 195.523C153.294 195.523 153.478 195.523 153.478 195.523L154.583 194.972C154.767 194.972 154.767 194.788 154.583 194.788ZM156.424 193.687L155.503 193.136C155.319 193.136 155.135 193.136 155.135 193.136L154.03 193.687C153.846 193.687 153.846 193.87 154.03 193.87L154.951 194.421C155.135 194.421 155.319 194.421 155.319 194.421L156.424 193.87C156.608 193.87 156.608 193.87 156.424 193.687ZM158.265 192.769L157.345 192.218C157.161 192.218 156.976 192.218 156.976 192.218L155.872 192.769C155.687 192.769 155.687 192.953 155.872 192.953L156.792 193.503C156.976 193.503 157.161 193.503 157.161 193.503L158.265 192.953V192.769ZM160.107 191.668L159.186 191.117C159.002 191.117 158.818 191.117 158.818 191.117L157.713 191.668C157.529 191.668 157.529 191.851 157.713 191.851L158.634 192.402C158.818 192.402 159.002 192.402 159.002 192.402L160.107 191.851V191.668ZM171.339 185.059L170.419 184.509C170.235 184.509 170.05 184.509 170.05 184.509L168.393 185.426C168.209 185.426 168.209 185.61 168.393 185.61L169.314 186.161C169.498 186.161 169.682 186.161 169.682 186.161L171.339 185.426C171.524 185.243 171.524 185.243 171.339 185.059ZM158.634 188.731L157.713 188.18C157.529 188.18 157.345 188.18 157.345 188.18L156.24 188.731C156.056 188.731 156.056 188.914 156.24 188.914L157.161 189.465C157.345 189.465 157.529 189.465 157.529 189.465L158.634 188.914C158.634 188.914 158.634 188.914 158.634 188.731ZM160.291 187.813L159.37 187.262C159.186 187.262 159.002 187.262 159.002 187.262L157.897 187.813C157.713 187.813 157.713 187.996 157.897 187.996L158.818 188.547C159.002 188.547 159.186 188.547 159.186 188.547L160.291 187.996C160.475 187.813 160.475 187.813 160.291 187.813ZM162.132 186.711L161.212 186.161C161.028 186.161 160.843 186.161 160.843 186.161L159.739 186.711C159.554 186.711 159.554 186.895 159.739 186.895L160.659 187.446C160.843 187.446 161.028 187.446 161.028 187.446L162.132 186.895C162.317 186.895 162.317 186.711 162.132 186.711ZM163.974 185.61L163.053 185.059C162.869 185.059 162.685 185.059 162.685 185.059L161.58 185.61C161.396 185.61 161.396 185.794 161.58 185.794L162.501 186.344C162.685 186.344 162.869 186.344 162.869 186.344L163.974 185.794C163.974 185.794 163.974 185.794 163.974 185.61ZM165.815 184.692L164.895 184.142C164.71 184.142 164.526 184.142 164.526 184.142L163.421 184.692C163.237 184.692 163.237 184.876 163.421 184.876L164.342 185.426C164.526 185.426 164.71 185.426 164.71 185.426L165.815 184.876V184.692ZM168.209 183.224L167.288 182.673C167.104 182.673 166.92 182.673 166.92 182.673L165.263 183.591C165.079 183.591 165.079 183.774 165.263 183.774L166.184 184.325C166.368 184.325 166.552 184.325 166.552 184.325L168.209 183.407C168.209 183.407 168.209 183.407 168.209 183.224ZM153.662 193.503L152.741 192.953C152.557 192.953 152.373 192.953 152.373 192.953L150.716 193.87C150.531 193.87 150.531 194.054 150.716 194.054L151.636 194.605C151.82 194.605 152.005 194.605 152.005 194.605L153.662 193.687V193.503ZM155.503 192.402L154.583 191.851C154.398 191.851 154.214 191.851 154.214 191.851L152.925 192.586V192.769L153.846 193.32C154.03 193.32 154.214 193.32 154.214 193.32L155.319 192.769C155.503 192.586 155.503 192.586 155.503 192.402ZM157.161 191.484L156.24 190.933C156.056 190.933 155.872 190.933 155.872 190.933L154.767 191.484C154.583 191.484 154.583 191.668 154.767 191.668L155.687 192.218C155.872 192.218 156.056 192.218 156.056 192.218L157.161 191.668C157.345 191.668 157.345 191.484 157.161 191.484ZM159.002 190.383L158.081 189.832C157.897 189.832 157.713 189.832 157.713 189.832L156.608 190.566C156.424 190.566 156.424 190.75 156.608 190.75L157.529 191.301C157.713 191.301 157.897 191.301 157.897 191.301L159.002 190.75C159.186 190.566 159.186 190.383 159.002 190.383ZM160.843 189.465L159.923 188.914C159.739 188.914 159.554 188.914 159.554 188.914L158.45 189.465C158.265 189.465 158.265 189.648 158.45 189.648L159.37 190.199C159.554 190.199 159.739 190.199 159.739 190.199L160.843 189.648C160.843 189.465 160.843 189.465 160.843 189.465ZM169.13 186.528L168.209 185.977C168.025 185.977 167.841 185.977 167.841 185.977L159.554 190.75C159.37 190.75 159.37 190.933 159.554 190.933L160.475 191.484C160.659 191.484 160.843 191.484 160.843 191.484L169.13 186.711V186.528ZM162.685 188.364L161.764 187.813C161.58 187.813 161.396 187.813 161.396 187.813L160.291 188.364C160.107 188.364 160.107 188.547 160.291 188.547L161.212 189.098C161.396 189.098 161.58 189.098 161.58 189.098L162.685 188.547V188.364ZM164.342 187.262L163.421 186.711C163.237 186.711 163.053 186.711 163.053 186.711L161.948 187.262C161.764 187.262 161.764 187.446 161.948 187.446L162.869 187.996C163.053 187.996 163.237 187.996 163.237 187.996L164.342 187.446C164.526 187.446 164.526 187.446 164.342 187.262ZM166.184 186.344L165.263 185.794C165.079 185.794 164.895 185.794 164.895 185.794L163.79 186.344C163.606 186.344 163.606 186.528 163.79 186.528L164.71 187.079C164.895 187.079 165.079 187.079 165.079 187.079L166.184 186.528C166.368 186.344 166.368 186.344 166.184 186.344ZM168.025 185.243L167.104 184.692C166.92 184.692 166.736 184.692 166.736 184.692L165.631 185.243C165.447 185.243 165.447 185.426 165.631 185.426L166.552 185.977C166.736 185.977 166.92 185.977 166.92 185.977L168.025 185.426C168.209 185.426 168.209 185.243 168.025 185.243ZM169.866 184.142L168.946 183.591C168.761 183.591 168.577 183.591 168.577 183.591L167.473 184.142C167.288 184.142 167.288 184.325 167.473 184.325L168.393 184.876C168.577 184.876 168.761 184.876 168.761 184.876L169.866 184.325C169.866 184.325 169.866 184.325 169.866 184.142ZM167.657 179.736L166.736 179.185C166.552 179.185 166.368 179.185 166.368 179.185L165.263 179.919C165.079 179.919 165.079 180.103 165.263 180.103L166.184 180.654C166.368 180.654 166.552 180.654 166.552 180.654L167.657 179.919C167.841 179.919 167.841 179.919 167.657 179.736ZM169.498 178.818L168.577 178.267C168.393 178.267 168.209 178.267 168.209 178.267L167.104 178.818C166.92 178.818 166.92 179.002 167.104 179.002L168.025 179.552C168.209 179.552 168.393 179.552 168.393 179.552L169.498 179.002C169.498 178.818 169.498 178.818 169.498 178.818ZM171.339 177.717L170.419 177.166C170.235 177.166 170.05 177.166 170.05 177.166L168.946 177.717C168.761 177.717 168.761 177.9 168.946 177.9L169.866 178.451C170.05 178.451 170.235 178.451 170.235 178.451L171.339 177.9V177.717ZM172.997 178.635L171.892 178.084C171.708 178.084 171.524 178.084 171.524 178.084L170.419 178.635C170.235 178.635 170.235 178.818 170.419 178.818L171.339 179.369C171.524 179.369 171.708 179.369 171.708 179.369L172.813 178.818C172.997 178.818 172.997 178.635 172.997 178.635ZM174.47 179.552L173.549 179.002C173.549 179.002 173.365 179.002 173.181 179.002L171.708 179.919H171.524L170.235 179.185C170.05 179.185 169.866 179.185 169.682 179.185L166.92 180.837C166.736 180.837 166.736 181.021 166.92 181.204L169.314 182.673C169.498 182.673 169.682 182.673 169.866 182.673L174.47 179.919C174.654 179.736 174.654 179.552 174.47 179.552Z" fill="#364157"/>
<path d="M198.04 254.263L166.184 272.986L185.334 284L217.375 265.46L198.04 254.263Z" fill="#F9F9FB"/>
<path d="M217.743 265.828C217.743 265.644 217.559 265.644 217.559 265.644C217.559 265.644 217.559 265.644 217.375 265.461L185.334 284.001L185.519 287.489L217.559 268.948C218.112 268.581 218.112 266.562 217.743 265.828Z" fill="#DDDDDF"/>
<path d="M197.303 253.529C196.935 253.161 196.567 252.611 196.383 251.877C196.014 251.142 195.83 250.224 195.83 249.49V222.69C195.83 221.588 196.199 221.038 196.751 220.67L163.79 237.558C163.237 237.926 162.685 240.128 162.685 241.23L162.952 269.052C162.952 269.786 163.137 270.704 163.505 271.438C163.689 271.989 164.057 272.539 164.426 273.09C164.794 273.457 164.978 273.641 165.346 273.824L198.408 254.263C197.856 254.079 197.488 253.896 197.303 253.529Z" fill="#DDDDE1"/>
<path d="M198.224 217.55C196.935 216.815 195.83 216.815 194.91 217.366L162.869 236.744C163.79 236.193 164.895 236.193 166.184 236.928L183.309 246.84L215.349 227.279L198.224 217.55Z" fill="white"/>
<path d="M203.749 170.924C202.275 172.026 204.117 181.388 197.119 183.774C196.383 183.958 195.094 183.407 194.541 183.223C193.253 182.856 181.836 178.634 181.836 178.634C181.283 178.267 179.81 176.615 178.521 175.881C177.6 175.33 176.68 174.963 175.759 174.779C175.575 174.779 175.022 174.779 174.654 174.779C172.076 175.881 169.866 178.083 169.498 178.451C169.314 178.634 169.13 178.818 169.314 179.001C169.314 179.185 169.498 179.185 169.682 179.185C169.498 179.736 170.051 179.919 170.235 179.919C170.603 179.919 171.34 179.552 171.34 179.552C171.524 179.552 171.708 179.552 171.892 179.552C173.549 179.919 175.391 180.286 175.759 180.653C176.311 181.02 175.022 181.755 175.022 181.755C175.022 181.755 173.365 181.571 173.181 181.571C172.629 181.571 171.892 181.938 172.076 182.305C172.076 182.673 172.444 182.673 172.629 182.856C173.181 183.04 174.838 183.407 174.838 183.407C175.391 183.223 179.074 182.673 179.074 182.673C179.074 182.673 206.695 190.933 207.063 190.933C207.984 191.117 210.93 186.711 211.298 182.856C211.851 179.001 208.72 167.437 203.749 170.924Z" fill="#FFCCAA"/>
<path d="M207.247 184.875C208.905 184.692 210.93 184.141 212.035 183.407C212.035 180.286 212.035 173.127 211.483 170.19C210.009 163.582 202.275 161.195 200.802 170.557C200.25 173.494 199.882 183.04 199.882 183.04C201.907 184.692 204.669 185.059 207.247 184.875Z" fill="#FB6D3A"/>
<path d="M206.879 216.448C206.879 216.448 178.889 210.941 176.311 210.024C168.393 207.637 164.342 216.265 164.71 217.733C159.554 216.816 152.741 218.1 150.531 229.298L153.294 227.646C156.976 230.032 173.918 236.641 179.626 239.394C186.439 242.515 205.958 234.621 206.695 226.912C206.695 226.912 206.879 217.55 206.879 216.448Z" fill="#1E2940"/>
<path d="M206.511 164.867C199.882 164.683 186.071 173.494 182.756 176.064C182.756 176.064 182.941 185.61 182.02 195.706C181.652 201.029 179.074 218.651 178.521 222.506C178.521 223.057 178.521 223.791 179.074 224.158C185.519 230.216 203.012 227.462 207.063 217.733C207.063 207.821 211.298 165.417 206.511 164.867Z" fill="#FB6D3A"/>
<path d="M201.907 166.702C201.723 166.519 201.723 166.335 201.723 165.968C201.723 165.417 201.723 164.867 201.723 164.316C201.723 163.582 201.723 162.664 201.539 161.93C201.355 160.828 200.066 161.195 199.145 161.012C197.672 160.461 196.199 160.461 194.542 160.278C194.357 160.278 193.989 160.278 193.805 160.094C193.437 159.91 193.253 159.727 192.884 159.727C192.7 159.727 192.332 159.727 191.964 159.543C191.779 159.543 189.938 158.993 189.938 158.809C190.49 161.379 191.043 167.437 191.043 170.557C191.043 170.557 188.281 172.576 187.912 172.76C190.675 175.146 197.304 173.127 200.987 170.19C201.539 169.639 202.276 169.089 202.46 168.354C202.644 167.62 202.091 167.253 201.907 166.702Z" fill="#FFCCAA"/>
<path d="M188.281 181.938C186.808 178.267 182.756 177.349 180.178 181.204C179.074 182.856 178.153 187.996 175.391 195.889L174.286 195.339C164.158 189.832 163.606 190.015 163.237 188.73C162.869 187.812 162.317 185.977 161.948 185.61C161.948 185.61 160.475 184.141 160.107 183.957C159.923 183.774 159.555 183.774 159.186 183.957C159.002 184.141 159.002 184.325 159.002 184.508C158.818 184.508 158.45 184.325 158.266 184.325C155.319 184.508 153.662 186.711 153.478 186.895C153.11 187.078 153.11 187.078 153.11 187.445C153.11 187.629 153.294 187.629 153.478 187.812C153.11 188.179 153.478 188.547 153.846 188.547C154.214 188.547 154.951 188.547 154.951 188.547C155.135 188.547 155.319 188.547 155.503 188.73C156.977 189.648 157.529 189.832 157.713 190.382C162.501 195.706 176.68 206.169 179.626 204.333C184.23 201.396 190.122 186.711 188.281 181.938Z" fill="#FFCCAA"/>
<path d="M181.836 196.44C183.493 196.623 185.518 196.623 186.807 196.073C187.544 193.136 189.201 185.977 189.201 182.672C189.385 175.697 182.388 171.658 178.889 180.653C177.785 183.407 175.207 192.768 175.207 192.768C176.68 194.971 179.258 196.073 181.836 196.44Z" fill="#FB6D3A"/>
<path d="M185.887 210.024L185.334 222.69L185.703 249.123C185.703 249.674 185.519 250.041 185.334 250.225L217.375 231.501C217.559 231.317 217.743 230.95 217.743 230.4V191.484L185.887 210.024Z" fill="#DDDDDF"/>
<path d="M217.928 191.3C217.928 191.116 217.743 191.116 217.743 190.933C217.559 190.566 217.191 190.382 216.823 190.199C216.27 190.015 215.902 189.831 215.718 189.831L183.493 208.372L185.887 210.024L217.928 191.484V191.3Z" fill="white"/>
<path d="M185.334 284L166.184 272.986C164.895 272.252 163.606 270.049 163.606 268.214V241.413C163.606 239.578 164.71 238.66 166.184 239.578L184.598 250.224C185.334 250.592 185.887 250.224 185.887 249.307V210.391C185.887 209.84 185.15 209.289 184.598 208.922C183.861 208.555 183.309 208.371 183.309 208.922V246.186L166.184 236.273C163.421 234.621 161.028 236.273 161.028 240.128V266.929C161.028 270.6 163.237 275.006 166.184 276.658L185.334 287.672C186.071 287.855 186.071 284.368 185.334 284Z" fill="#EBECF3"/>
<path d="M185.703 156.056C185.887 158.075 186.255 159.91 186.439 161.93C186.808 163.765 187.176 165.601 187.544 167.253C187.544 167.62 187.728 167.987 187.913 168.354C188.097 168.722 188.465 168.905 188.833 169.272C190.675 170.374 192.148 170.006 194.173 169.823C195.831 169.639 197.304 169.089 198.777 168.354C199.698 167.987 200.434 167.437 200.987 166.519C201.355 165.784 201.539 165.05 201.539 164.132C201.539 160.278 199.882 156.79 198.04 153.486C197.488 152.568 197.12 151.65 196.383 150.916C194.91 149.264 192.516 148.713 190.122 148.346C188.833 148.162 187.176 147.979 186.255 149.08C185.519 149.814 185.335 150.916 185.335 151.834C185.335 152.935 185.519 154.587 185.703 156.056Z" fill="#FFCCAA"/>
<path d="M184.598 150.549C184.782 152.201 185.334 153.853 185.519 154.587C185.519 154.771 185.703 155.138 185.887 155.321C186.255 156.056 186.808 156.79 186.992 157.524C187.176 158.442 186.992 159.543 187.728 160.278C187.912 160.461 188.097 160.645 188.281 160.461C188.465 160.461 188.649 160.094 188.649 159.91C188.833 159.36 189.017 158.258 189.57 158.075C190.306 157.891 191.227 158.993 191.411 159.543C191.779 160.461 191.411 161.379 191.595 162.297C191.779 164.316 192.332 165.968 194.357 166.152C195.646 166.335 197.119 166.335 198.408 165.968C202.091 165.05 204.485 162.113 204.853 158.626C205.406 154.954 205.222 150.365 203.012 147.061C201.539 144.675 198.408 143.94 195.462 144.307C192.884 144.675 191.043 144.675 187.36 146.694C186.071 147.428 184.414 149.264 184.598 150.549Z" fill="#2E2C34"/>
<path d="M184.598 150.548C184.782 152.201 185.334 153.853 185.519 154.587C185.519 154.77 185.703 155.138 185.887 155.321C189.386 152.751 190.675 149.814 187.544 146.694C186.071 147.428 184.414 149.264 184.598 150.548Z" fill="#2E2C34"/>
<path d="M149.795 174.229L136.536 181.938L142.061 185.059L155.319 177.533L149.795 174.229Z" fill="#1E2A3D"/>
<path d="M155.319 177.533L142.061 185.059C142.061 185.243 142.061 185.61 142.061 185.794L155.319 178.084C155.503 178.267 155.503 177.717 155.319 177.533Z" fill="#1D293C"/>
<path d="M148.69 172.944C148.506 172.393 148.322 171.842 148.506 171.475L152.189 163.582L138.931 171.292L135.248 179.185C135.064 179.552 135.064 180.103 135.432 180.654C135.616 181.021 135.693 181.271 135.877 181.455C136.061 181.638 136.388 181.965 136.537 181.939L149.795 174.229C149.611 174.045 149.427 173.862 149.242 173.678C149.058 173.494 148.874 173.311 148.69 172.944Z" fill="#172030"/>
<path d="M142.061 185.059L136.537 181.939C136.168 181.755 135.8 181.204 135.432 180.654C135.248 180.103 135.064 179.552 135.248 179.185L138.931 171.292V171.108V163.399C138.931 163.215 138.746 162.848 138.562 162.848C138.378 162.664 138.194 162.848 138.194 163.031V170.741L134.695 178.634C134.511 179.185 134.511 179.919 134.879 180.837C135.248 181.755 135.8 182.489 136.537 182.856L142.061 185.784C142.245 185.784 142.245 185.243 142.061 185.059Z" fill="#1D293C"/>
<path d="M152.189 155.505C152.189 155.505 152.189 155.322 152.005 155.322L151.82 155.138H151.636L138.378 162.848H138.562C138.562 162.848 138.746 162.848 138.746 163.031L138.93 163.215V163.399V171.108V171.292L152.189 163.582V163.399V155.689V155.505Z" fill="#B2B9BB"/>
<path d="M174.654 112.734L174.838 153.853L114.44 188.547L113.887 181.571L113.519 146.877L174.654 112.734Z" fill="#1E2A3D"/>
<path d="M114.44 188.547L113.335 187.996L113.151 146.694L114.44 147.428V188.547Z" fill="#1D293C"/>
<path d="M114.44 147.428L113.151 146.694L173.549 112L174.654 112.734L114.44 147.428Z" fill="#34455F"/>
<path opacity="0.1" d="M114.808 147.612L174.286 113.468V147.061L114.808 181.204V147.612Z" fill="#A39DAB"/>
<path opacity="0.8" d="M120.148 147.245C120.885 146.877 121.253 147.979 120.7 148.897C120.332 149.814 119.596 149.998 119.596 148.897C119.227 149.631 118.491 151.099 118.491 150.182C118.491 149.631 118.675 148.529 118.675 147.979C118.675 147.795 118.675 147.795 118.859 147.795C118.859 147.795 118.859 147.795 118.859 147.979C118.675 148.713 118.675 149.447 118.675 149.998C118.859 149.631 119.043 149.447 119.227 149.08C119.596 148.529 119.78 148.346 119.78 148.897C119.78 149.08 119.964 149.264 120.148 149.264C120.885 148.897 120.885 146.877 120.148 147.245C119.964 147.612 120.148 147.612 120.148 147.245C119.964 147.428 119.964 147.428 120.148 147.245ZM124.015 146.51C124.015 146.51 122.174 147.979 122.174 147.795C121.989 147.795 124.015 146.327 124.015 146.51ZM124.015 145.776L123.647 145.96C121.069 147.979 122.358 146.694 124.015 145.776C124.015 145.592 124.199 145.776 124.015 145.776ZM125.488 147.428C125.304 147.612 125.12 147.979 125.12 147.612C125.12 147.428 125.488 146.143 125.488 146.143C124.936 147.245 124.015 147.428 124.567 146.143C125.12 144.675 125.856 144.491 125.856 144.858C125.856 145.042 125.856 145.042 125.672 144.858C125.12 144.675 124.199 147.061 124.752 146.694C125.12 146.51 125.488 145.96 125.672 145.225C125.672 145.225 125.856 145.042 125.856 145.225C125.856 145.409 125.304 147.245 125.304 147.428C125.856 146.877 126.041 146.694 125.488 147.428ZM126.593 143.573C126.777 143.757 126.593 144.307 126.409 144.491C125.856 147.061 127.514 145.042 127.514 143.573C127.514 143.39 127.514 142.839 127.698 143.023C127.882 143.206 127.514 144.675 127.514 145.042C126.961 146.327 126.225 146.327 126.225 145.776C126.225 145.592 126.593 143.573 126.593 143.573ZM128.987 144.858C128.987 144.675 130.276 140.82 130.276 141.003C130.46 141.187 129.171 144.491 128.987 144.675C129.171 144.858 129.171 145.042 128.987 144.858ZM131.381 141.187L131.196 141.37C131.012 141.37 131.749 140.269 132.117 140.453C132.67 140.636 131.749 142.105 131.381 142.472C131.196 142.655 131.012 143.023 130.828 143.206C131.012 143.206 132.117 142.105 132.117 142.288C132.117 142.472 131.012 143.206 130.828 143.206C130.644 143.206 130.644 143.206 130.644 143.206C130.644 143.023 131.012 142.655 131.196 142.472C132.301 141.003 132.117 140.269 131.749 140.636C131.565 140.82 131.381 141.003 131.381 141.187ZM134.511 140.269C134.695 140.269 134.695 140.269 134.695 140.269L133.774 141.003C132.117 142.288 132.854 141.37 134.511 140.269ZM134.143 140.085C132.67 141.187 132.485 141.003 133.774 140.269C134.879 139.351 135.432 139.168 134.143 140.085ZM135.432 141.738C135.432 141.738 135.248 142.105 135.063 142.105C134.879 142.288 135.248 140.82 135.432 140.453C135.248 140.82 134.695 141.37 134.511 141.37C133.959 141.187 135.063 139.351 135.432 139.168C135.8 138.984 135.984 139.535 135.616 139.351C135.432 139.351 135.248 139.535 135.063 139.902C133.774 142.105 135.248 141.554 135.616 139.902C135.616 139.902 135.8 139.718 135.8 139.902C135.8 140.085 135.248 141.921 135.248 142.105C135.8 141.187 136.168 141.003 135.432 141.738ZM137.089 138.433C137.273 138.433 136.537 138.984 136.537 138.984C136.168 139.168 136.352 138.801 136.721 138.433C137.273 137.699 137.089 137.332 136.721 137.699C136.537 137.883 136.352 137.883 136.721 137.516C137.089 136.965 137.457 137.332 137.089 138.066C136.905 138.25 136.721 138.433 136.537 138.801C137.089 138.25 137.089 138.433 137.089 138.433ZM137.457 140.085C137.273 140.085 138.746 136.047 138.746 136.231C139.115 136.047 138.562 137.332 138.378 137.699C138.01 138.617 138.01 138.984 137.641 139.902C137.457 139.902 137.457 140.085 137.457 140.085ZM139.667 136.414C139.483 136.598 139.299 136.598 139.667 136.231C140.588 135.129 141.508 135.863 139.299 138.617C139.483 138.617 140.588 137.516 140.588 137.699C140.588 137.883 139.483 138.617 139.299 138.617C139.115 138.617 139.115 138.617 139.115 138.617C139.115 138.433 139.483 138.066 139.667 137.883C140.956 135.863 140.404 135.496 139.667 136.414ZM143.35 133.844V134.762C142.982 133.844 142.061 134.579 141.693 135.496C141.14 137.332 142.429 137.516 143.35 135.863C143.166 136.231 142.982 136.414 142.982 136.598C141.14 138.801 140.219 135.68 142.429 134.395C142.797 134.211 143.166 134.211 143.166 134.211C143.166 134.028 143.166 134.028 143.35 133.844ZM145.744 134.028C145.744 134.028 143.902 135.496 143.902 135.313C143.718 135.313 145.744 133.844 145.744 134.028ZM145.744 133.294L145.375 133.477C142.797 135.496 144.086 134.028 145.744 133.294C145.744 133.11 145.744 133.294 145.744 133.294ZM146.849 132.192C146.296 132.192 145.56 133.844 145.56 134.395C145.56 134.762 145.928 134.762 146.48 134.028C147.033 133.294 146.849 133.844 146.296 134.395C145.56 135.129 144.823 134.946 145.375 133.661C145.744 133.11 146.296 132.192 146.849 132.192C147.033 131.825 147.217 132.192 146.849 132.192ZM147.953 131.458C148.138 131.641 147.585 133.294 147.769 133.661C147.953 133.844 149.058 132.559 148.874 131.091C148.874 130.907 148.874 130.907 148.874 130.907C148.874 130.907 149.058 130.907 149.058 131.091C149.058 133.477 147.033 135.496 147.585 132.743C147.769 131.825 147.769 131.458 147.953 131.458C147.769 131.458 147.769 131.274 147.953 131.458ZM151.452 130.173C151.452 129.989 151.452 129.989 151.452 130.173C151.636 129.989 151.636 129.989 151.452 130.173C151.452 130.357 150.9 130.724 150.9 130.724H150.716L151.084 130.173C151.268 129.989 151.452 129.622 151.452 129.439C151.452 129.255 151.268 129.255 151.084 129.439L150.9 129.622C150.716 129.622 150.9 129.439 150.9 129.439C151.084 129.255 151.268 129.072 151.452 129.255C151.636 129.439 151.452 129.806 151.452 129.989C151.268 130.173 151.084 130.357 150.9 130.724C151.452 129.989 151.452 130.173 151.452 130.173ZM151.82 131.825C151.636 131.825 152.925 128.154 153.109 128.154V127.97C153.109 127.97 153.294 127.97 153.294 128.154C153.294 128.337 152.925 129.255 152.925 129.439C152.557 130.357 152.557 130.724 152.189 131.641C152.005 131.641 152.005 131.825 151.82 131.825ZM154.214 128.154C154.03 128.154 154.03 128.154 154.214 128.154C154.03 128.337 153.846 128.337 154.214 127.97C154.398 127.787 154.767 127.419 154.951 127.603C155.135 127.787 155.135 128.154 154.951 128.521C154.767 129.072 154.03 129.989 153.662 130.54C153.662 130.54 154.03 130.357 154.214 130.173C154.951 129.622 154.951 129.622 154.951 129.622C154.951 129.806 153.846 130.724 153.478 130.724C153.478 130.724 153.478 130.54 153.662 130.54C153.662 130.357 153.846 130.173 154.03 130.173C155.503 127.603 154.767 127.052 154.214 128.154ZM119.043 153.302C119.043 153.302 119.043 153.119 119.043 153.302C119.411 153.486 118.675 155.872 118.675 155.872C118.491 156.056 118.675 154.954 118.859 154.587C119.043 153.486 119.043 153.302 119.043 153.302ZM120.148 155.689L120.332 153.302C120.332 153.119 120.516 153.119 120.516 153.302C120.516 153.486 120.332 155.872 120.148 155.689ZM123.094 152.384C123.094 152.384 121.253 153.853 121.253 153.669C120.885 153.669 123.094 152.201 123.094 152.384ZM123.094 151.65L122.726 151.834C120.148 153.853 121.253 152.568 123.094 151.65C123.094 151.467 123.094 151.65 123.094 151.65ZM123.831 150.549C123.831 150.549 124.015 150.365 123.831 150.549C124.015 150.732 123.463 153.302 123.463 153.119C123.278 153.119 123.831 150.365 123.831 150.549ZM125.304 150.549L125.12 150.732C124.936 150.732 125.672 149.631 126.041 149.814C126.777 150.182 125.304 152.017 124.752 152.568C124.936 152.384 125.856 151.834 126.041 151.65C126.593 151.467 124.567 153.119 124.752 152.568C124.752 152.384 125.488 151.467 125.672 151.283C126.409 150.182 126.041 149.814 125.856 149.814C125.672 150.365 125.488 150.549 125.304 150.549ZM127.882 149.631C127.882 149.631 126.041 151.099 126.041 150.916C125.856 150.916 127.882 149.447 127.882 149.631ZM127.882 148.897L127.514 149.08C124.936 151.099 126.041 149.814 127.882 148.897C127.882 148.713 128.066 148.713 127.882 148.897ZM128.619 147.795C128.619 147.612 128.803 147.612 128.619 147.795C128.987 147.979 128.25 150.365 128.25 150.365C128.066 150.549 128.25 149.447 128.434 149.08C128.619 147.979 128.619 147.795 128.619 147.795ZM129.355 150.182C129.723 149.814 129.539 149.631 129.539 149.631C129.355 149.631 129.539 149.264 129.723 149.264C129.908 149.264 129.723 149.814 129.539 149.998C129.171 150.549 128.987 150.732 129.355 150.182ZM131.933 145.96C132.117 146.143 131.933 146.694 131.749 146.877C131.196 149.447 132.854 147.428 132.854 145.96C132.854 145.776 132.854 145.225 133.038 145.409C133.406 145.592 132.854 147.795 131.933 148.346C131.565 148.529 131.381 148.346 131.381 147.979C131.381 147.979 131.749 145.96 131.933 145.96C131.749 145.96 131.749 145.96 131.933 145.96ZM134.511 147.245C134.511 147.245 134.695 146.143 134.695 145.042C134.695 144.858 134.879 144.858 134.879 145.042C134.879 147.245 134.511 147.612 134.511 147.245ZM136.537 144.491C136.537 144.675 136.352 145.776 136.352 145.409C136.352 145.409 136.352 144.675 136.537 144.491C136.352 144.675 135.8 145.042 135.616 145.042C135.248 144.858 136.168 144.491 136.537 144.491C136.352 144.307 136.537 143.573 136.537 143.573C136.537 143.573 136.721 143.573 136.721 143.757C136.721 143.757 136.721 144.124 136.537 144.491C136.721 144.307 137.273 143.94 137.457 143.94C137.641 143.573 137.826 143.757 136.537 144.491ZM138.378 142.288C138.562 142.472 138.378 143.023 138.194 143.206C137.641 145.776 139.483 143.757 139.299 141.921C139.299 141.738 139.299 141.738 139.299 141.738C139.299 141.738 139.483 141.738 139.483 141.921C139.483 144.491 137.457 146.143 138.01 143.573C138.194 142.655 138.194 142.288 138.378 142.288C138.194 142.288 138.194 142.105 138.378 142.288ZM141.508 141.37L141.324 141.554C141.14 141.554 141.877 140.453 142.245 140.636C142.982 141.003 141.508 142.839 140.956 143.39C141.14 143.206 142.061 142.655 142.245 142.472C142.797 142.105 141.693 143.206 141.14 143.39C140.956 143.39 140.956 143.39 140.956 143.39C140.956 143.206 141.324 142.839 141.508 142.655C141.877 142.288 142.613 141.003 142.245 140.636H142.061C141.693 141.003 141.508 141.187 141.508 141.37ZM142.797 141.003C145.191 139.351 143.35 141.003 142.061 141.738C141.877 141.554 142.613 141.187 142.797 141.003ZM143.902 139.535C143.902 139.535 143.35 139.902 143.166 140.085C142.982 140.085 142.061 140.82 142.061 140.82H141.877C142.061 140.636 143.718 139.718 143.902 139.535C144.086 139.535 144.086 139.535 143.902 139.535ZM144.823 138.617C145.007 138.801 144.823 139.351 144.639 139.535C144.086 142.105 145.744 140.085 145.744 138.25C145.744 138.066 145.744 138.066 145.744 138.066C146.112 137.883 145.928 140.453 144.823 141.003C144.455 141.187 144.271 141.003 144.271 140.636C144.271 140.453 144.639 138.617 144.823 138.617C144.639 138.617 144.639 138.433 144.823 138.617ZM146.849 140.269C146.849 140.269 147.217 139.718 147.217 139.535C147.217 139.351 147.217 139.351 147.033 139.351C146.849 139.351 146.849 139.351 147.033 139.168C147.217 138.801 147.769 138.984 147.217 139.718C147.217 139.902 146.849 140.453 146.849 140.269ZM148.69 138.433L149.058 136.231C148.69 136.231 149.611 135.496 150.163 135.496C150.716 135.496 150.163 136.414 149.795 136.781C149.242 137.332 148.874 137.332 149.979 137.699C149.979 137.699 150.163 137.699 150.163 137.883C150.163 138.25 149.058 137.883 148.874 137.699C148.874 137.883 148.69 138.25 148.69 138.617C148.874 138.433 148.874 138.617 148.69 138.433ZM149.242 137.148C149.427 136.781 150.347 136.231 150.347 135.68C150.347 135.313 149.795 135.68 149.427 136.047C149.427 136.231 149.242 137.148 149.242 137.148ZM151.636 137.332C151.636 137.332 151.82 136.231 151.82 135.129C151.82 134.946 152.005 134.946 152.005 135.129C152.005 137.516 151.636 137.883 151.636 137.332ZM153.662 134.579C153.662 134.579 153.478 135.496 153.478 135.68C153.294 135.68 153.478 134.946 153.662 134.579C153.478 134.762 152.741 135.129 152.741 135.129C152.741 135.129 152.557 134.946 152.741 134.946C153.109 134.762 153.109 134.762 153.662 134.579C153.478 134.395 153.662 133.661 153.662 133.661C153.846 133.477 153.662 134.211 153.662 134.395C153.846 134.211 154.398 133.844 154.583 133.844C154.767 133.661 154.767 133.844 153.662 134.579ZM154.951 134.946C154.767 134.946 155.135 134.028 155.135 133.844C155.319 133.294 155.319 132.926 155.319 132.743C154.951 132.743 155.872 132.009 156.424 132.009C156.608 132.009 156.608 132.009 156.608 132.192C156.608 132.559 156.24 132.926 156.056 133.11C155.503 133.661 155.135 133.661 156.24 134.028C156.24 134.028 156.424 134.028 156.424 134.211C156.424 134.395 155.872 134.395 155.687 134.211C155.319 134.211 155.135 134.028 155.135 133.844C155.135 134.028 154.951 134.211 154.951 134.579V134.762C154.951 134.762 154.951 135.129 154.951 134.946ZM155.319 133.661C155.687 133.294 155.872 133.11 156.24 132.559C156.608 132.009 156.24 131.825 155.503 132.559C155.503 132.743 155.319 133.477 155.319 133.661ZM158.265 131.825L158.081 132.009C157.897 132.009 158.634 130.907 159.002 131.091C159.554 131.274 158.634 132.743 158.265 133.11C158.081 133.294 157.897 133.661 157.713 133.844C157.713 133.844 158.081 133.661 158.265 133.477C159.37 132.743 159.186 132.926 158.449 133.477C158.265 133.661 157.529 134.211 157.529 134.028C157.529 133.844 158.265 132.926 158.449 132.743C159.186 131.641 158.818 131.274 158.634 131.274C158.449 131.458 158.265 131.641 158.265 131.825ZM159.554 131.458C161.212 130.357 161.212 130.54 159.37 131.825C158.634 132.192 158.449 132.192 159.554 131.458ZM160.659 129.989L160.291 130.173C157.713 132.192 158.818 130.907 160.659 129.989C160.843 129.806 160.843 129.989 160.659 129.989ZM161.027 131.458L161.396 129.255C161.027 129.255 161.948 128.521 162.501 128.521C162.869 128.521 162.685 129.072 162.501 129.255C161.948 130.173 161.027 129.989 162.132 130.357C163.237 130.724 161.58 130.724 161.396 130.173C161.396 130.357 161.212 130.724 161.212 131.091C161.212 131.274 161.027 131.458 161.027 131.458ZM161.396 130.173C161.58 129.806 162.501 129.255 162.501 128.704C162.501 128.337 161.948 128.704 161.58 129.072C161.58 129.255 161.396 129.989 161.396 130.173ZM120.332 159.911L120.7 160.461C120.7 160.645 120.516 160.645 120.332 160.094C118.859 162.113 119.227 158.442 120.516 157.708C120.885 157.341 121.437 158.258 120.332 159.911ZM120.148 159.911C119.964 159.543 119.78 158.809 119.964 158.442C119.043 159.727 119.227 161.195 120.148 159.911ZM120.332 159.727C120.516 159.36 121.069 158.258 120.7 157.891C120.332 157.524 119.78 158.442 120.332 159.727ZM123.463 157.341C123.463 157.341 121.621 158.809 121.621 158.626C121.437 158.626 123.463 157.157 123.463 157.341ZM123.463 156.606L123.094 156.79C120.516 158.809 121.621 157.524 123.463 156.606C123.647 156.423 123.647 156.606 123.463 156.606ZM124.383 155.505C124.383 155.321 124.383 155.321 124.383 155.505C124.752 155.689 124.015 158.075 124.015 158.075C123.831 158.258 124.015 157.157 124.199 156.79C124.383 155.689 124.383 155.505 124.383 155.505ZM125.488 155.138C125.304 155.138 125.304 155.138 125.672 154.771C125.856 154.587 126.225 154.22 126.409 154.404C127.145 154.771 125.672 156.606 125.12 157.157C125.304 157.157 126.409 156.056 126.409 156.239C126.409 156.423 125.304 157.157 125.12 157.157C124.936 157.157 124.936 157.157 124.936 157.157C124.936 156.973 125.304 156.606 125.488 156.423C126.593 154.954 126.409 154.22 126.041 154.587C125.856 154.771 125.672 155.138 125.488 155.138ZM127.145 156.239L127.514 154.036C127.33 154.036 127.514 153.853 127.698 153.669C128.803 152.751 129.539 153.302 127.882 154.771C127.698 154.954 127.514 154.954 128.25 155.138C129.355 155.505 127.698 155.505 127.514 154.954C127.514 155.138 127.33 156.239 127.145 156.239ZM127.698 154.771L127.882 154.587C129.171 153.302 128.803 152.935 127.882 153.853L127.698 154.771ZM129.723 153.119C129.723 153.486 129.171 154.771 129.539 154.587C129.908 154.404 130.092 154.036 130.092 154.036C130.46 153.853 129.539 154.954 129.355 154.771C129.171 154.771 129.539 153.486 129.539 153.119C129.171 153.669 128.987 153.486 129.723 153.119C129.539 152.751 129.539 152.751 129.723 152.568V152.384C129.908 152.201 129.908 152.751 129.723 152.935C130.46 152.384 130.828 152.384 129.723 153.119ZM162.685 124.85H163.237C163.237 125.033 162.685 125.217 162.316 125.033C161.396 124.666 162.316 122.647 162.869 121.729C163.053 121.545 163.605 120.628 163.605 120.995C163.605 120.995 162.869 122.096 162.685 122.28C162.316 123.197 161.764 124.666 162.685 124.85ZM163.79 124.115L164.158 121.912C163.974 121.729 164.526 121.178 164.71 121.178C165.079 120.995 165.447 120.995 165.447 121.362C165.447 121.729 165.079 122.096 164.894 122.28C164.342 122.83 163.974 122.83 165.079 123.014C165.447 123.197 165.263 123.381 164.71 123.197C164.342 123.197 164.158 123.014 164.158 122.83C164.158 123.014 163.974 124.115 163.79 124.115ZM164.158 122.83C164.342 122.463 165.263 121.912 165.263 121.362C165.263 120.995 164.71 121.362 164.342 121.729C164.342 121.729 164.158 122.647 164.158 122.83ZM167.472 120.995C167.657 120.995 167.657 120.995 167.657 120.995C167.657 120.995 167.104 121.545 166.92 121.545C164.71 123.014 165.815 121.912 167.472 120.995ZM167.657 120.077L167.288 120.26C164.71 122.463 165.999 120.995 167.657 120.077C167.841 119.893 167.841 120.077 167.657 120.077ZM168.761 119.159C169.13 118.425 169.498 118.425 169.498 119.343C169.498 119.71 169.498 120.077 169.314 120.444C168.577 122.096 167.657 120.811 168.761 119.159ZM169.314 119.343C169.314 118.608 169.13 118.608 168.761 119.159C168.577 119.343 168.577 119.526 168.577 119.893C168.025 121.729 169.314 120.995 169.314 119.343ZM169.866 120.995C169.682 121.178 169.498 121.178 169.498 121.178L170.05 120.444C170.603 119.71 170.787 119.343 170.787 118.975C170.971 118.608 170.971 118.425 170.971 118.241C170.971 118.058 170.971 117.874 170.971 117.874C170.971 117.69 170.787 117.69 170.787 117.69H170.603H170.419C170.419 117.69 170.419 117.69 170.603 117.507C170.787 117.507 170.971 117.507 171.155 117.507C171.339 117.69 171.339 117.874 171.339 118.241C171.339 118.792 171.155 119.343 170.971 119.71C170.787 119.893 170.787 120.077 170.603 120.444C170.235 120.26 170.05 120.628 169.866 120.995ZM163.053 134.211C162.869 134.395 162.501 134.579 162.132 134.762C162.132 134.946 161.764 136.231 161.764 136.047C161.764 136.047 161.764 135.496 161.948 135.313C162.132 134.395 162.316 133.477 162.316 133.477C162.501 133.294 163.605 132.559 163.605 132.743C163.605 132.743 163.421 132.926 163.237 132.926C163.053 133.11 162.869 133.11 162.685 133.294C162.501 133.294 162.501 133.477 162.316 133.661C162.316 133.844 162.132 134.395 162.132 134.579C162.685 134.395 163.421 133.844 163.053 134.211ZM164.894 133.844C164.158 135.496 162.869 135.313 164.342 133.11C165.079 132.009 165.447 132.559 165.263 133.11C165.263 133.11 165.079 133.661 164.894 133.844C165.079 133.844 165.079 134.211 165.079 134.211C165.079 134.211 165.079 134.211 164.894 134.211C164.894 134.395 164.894 134.028 164.894 133.844ZM165.079 133.11C165.079 132.926 165.079 132.926 165.079 132.743C164.894 132.559 164.526 132.926 164.526 133.294C163.053 135.313 164.526 135.129 165.079 133.11ZM166.552 132.559C167.841 131.641 168.209 131.641 167.104 132.376C167.104 132.376 165.999 133.294 165.815 133.11C165.631 133.11 166.368 132.743 166.552 132.559ZM167.657 131.091C167.472 131.274 165.999 132.192 165.815 132.376H165.631C165.815 132.192 167.472 131.091 167.657 131.091C167.841 130.907 167.841 131.091 167.657 131.091ZM168.577 129.989C168.577 129.989 168.577 129.806 168.577 129.989C168.761 130.173 168.577 131.274 168.577 131.458C168.577 131.458 168.393 132.559 168.209 132.559C168.025 132.743 168.209 131.641 168.393 131.274C168.577 130.173 168.577 129.989 168.577 129.989ZM169.13 132.009C168.946 132.009 168.946 131.825 168.946 131.825C168.946 131.825 169.13 131.825 169.314 131.825C169.314 131.825 169.314 131.825 169.314 131.641C169.314 131.641 169.682 129.989 169.682 129.622C169.682 129.622 169.498 129.806 169.498 129.622C169.314 129.622 169.498 129.439 169.682 129.439C170.971 128.337 171.708 129.072 170.235 130.357C170.603 130.173 170.787 130.173 170.971 130.173C171.524 129.989 169.866 132.009 169.13 132.009ZM169.866 130.54C169.682 130.54 169.682 130.54 169.866 130.54C169.682 130.724 169.498 131.641 169.498 131.825C170.603 130.907 171.339 129.622 169.866 130.54ZM170.603 129.072C170.419 129.072 170.05 129.255 169.866 129.439C170.05 129.439 169.866 130.173 169.682 130.357C169.682 130.357 169.866 130.173 170.05 130.173C170.235 129.989 170.419 129.806 170.603 129.622C170.603 129.439 170.787 129.072 170.603 129.072ZM117.57 165.968C117.386 166.152 117.018 166.335 116.649 166.519C116.649 166.702 116.281 167.987 116.281 167.804L116.833 165.234C117.018 165.05 118.122 164.316 118.122 164.5L117.386 165.05C117.202 165.05 117.202 165.234 117.018 165.418C117.018 165.601 116.833 166.152 116.833 166.335C117.202 166.152 117.938 165.601 117.57 165.968ZM119.043 165.418C120.7 164.316 120.7 164.5 118.859 165.785C118.122 166.152 117.938 166.152 119.043 165.418ZM120.148 163.949L119.78 164.133C117.386 166.152 118.307 164.867 120.148 163.949C120.332 163.765 120.332 163.949 120.148 163.949ZM120.516 165.418C120.332 165.418 120.332 165.234 120.332 165.234C120.332 165.234 120.516 165.234 120.7 165.234C120.516 165.05 120.7 164.867 120.7 164.683C121.069 163.398 121.069 163.031 121.069 163.031C120.885 163.215 120.7 163.031 120.885 162.848C122.174 161.746 122.91 162.48 121.437 163.765C123.463 162.48 121.621 165.418 120.516 165.418ZM121.253 163.949C121.069 164.133 120.885 165.05 120.885 165.234C122.174 164.5 122.91 163.031 121.253 163.949ZM121.253 162.848C121.437 162.848 121.253 163.582 121.069 163.765C121.253 163.582 121.621 163.215 121.805 163.031C122.358 162.664 122.174 162.297 121.253 162.848ZM124.015 164.316C123.278 165.234 123.647 164.316 124.015 163.031C123.463 164.133 122.542 164.316 123.094 163.031C123.278 162.664 123.647 161.93 124.015 161.746C124.383 161.563 124.567 162.113 124.199 161.93C123.647 161.746 122.726 164.133 123.278 163.765C123.831 163.398 124.199 162.297 124.199 162.297C124.383 162.113 124.199 162.848 124.015 163.215C123.831 163.765 123.647 164.316 123.647 164.5C124.383 163.765 124.567 163.582 124.015 164.316ZM126.225 160.461C126.593 160.828 126.409 162.297 125.488 162.848C124.752 163.215 124.752 162.664 124.752 161.93C124.752 161.563 124.752 161.379 124.752 161.379L125.12 161.195C125.12 161.195 125.12 162.113 125.12 162.297C125.12 163.031 126.041 162.664 126.041 161.379C126.041 161.012 126.041 160.828 125.856 160.645L126.225 160.461ZM127.882 159.727C127.698 159.727 127.514 159.911 127.33 160.094C126.961 160.461 127.145 160.645 127.514 160.645C128.25 160.645 127.882 161.379 127.33 161.746C127.145 161.93 126.593 161.93 126.593 161.746C126.593 161.746 126.593 161.563 126.777 161.563C127.33 161.746 128.25 160.645 127.33 160.828C127.145 160.828 126.961 160.828 126.961 160.645C126.961 160.278 127.514 159.727 127.698 159.543C128.066 159.36 128.066 159.911 127.882 159.727ZM128.803 158.993C128.987 158.993 127.882 163.215 128.434 159.911C128.434 159.727 128.619 158.809 128.803 158.993ZM128.987 158.442C128.803 158.442 128.619 158.442 128.803 158.258C128.987 157.891 129.171 158.258 128.987 158.442ZM130.828 157.891C131.012 158.075 130.828 158.626 130.828 158.809C130.46 160.094 130.276 159.911 130.46 159.543C130.46 159.176 130.828 158.442 130.828 158.075C130.828 157.341 130.092 158.809 129.908 159.36C128.803 161.563 129.723 159.543 129.723 158.442C129.723 158.258 129.908 158.258 129.908 158.442C129.908 158.809 129.723 159.543 129.539 159.727C129.539 159.543 130.276 157.708 130.828 157.891ZM134.143 155.872C134.143 156.056 134.143 156.79 134.143 157.157C134.143 157.341 134.143 157.524 134.327 157.341V157.524C134.143 157.708 133.959 157.708 133.959 157.341C133.59 158.258 132.485 158.626 132.485 157.524C132.485 156.423 133.59 155.689 133.959 156.056C133.959 155.872 133.959 155.872 133.959 155.689L134.143 155.872ZM133.774 157.341C133.774 157.157 133.774 156.973 133.774 156.79C133.59 156.239 132.854 156.79 132.854 157.708C132.67 158.442 133.59 158.075 133.774 157.341ZM121.069 168.905C122.358 167.987 122.542 167.987 121.621 168.722C119.964 169.823 119.964 169.64 121.069 168.905ZM121.805 167.804C119.227 169.64 120.7 168.171 122.174 167.437C122.358 167.253 122.542 167.253 121.805 167.804ZM122.542 168.905C122.358 168.905 122.358 168.722 122.358 168.722C122.358 168.722 122.542 168.722 122.726 168.722C122.542 168.538 122.726 168.355 122.726 168.171C123.094 166.886 123.094 166.519 123.094 166.519C122.91 166.702 122.726 166.519 122.91 166.335C124.199 165.234 124.936 165.968 123.463 167.253C125.488 165.968 123.647 168.905 122.542 168.905ZM123.278 167.437C123.094 167.62 122.91 168.538 122.91 168.722C124.199 167.987 124.936 166.519 123.278 167.437ZM123.278 166.335C123.463 166.335 123.278 167.07 123.094 167.253C123.278 167.07 123.647 166.702 123.831 166.519C124.383 166.152 124.199 165.785 123.278 166.335ZM124.752 167.253C124.752 167.253 124.752 167.07 124.752 167.253C125.488 167.437 126.777 166.335 125.672 165.968C125.304 165.785 125.12 165.601 125.304 165.418C125.488 165.05 126.409 164.316 126.409 164.5L125.856 165.05C125.304 165.601 125.488 165.601 125.856 165.785C126.041 165.785 126.225 165.968 126.225 166.152C126.409 167.07 124.752 167.987 124.752 167.253ZM128.25 165.785C127.698 166.519 126.777 166.702 126.777 165.785C126.777 164.867 127.698 164.133 128.25 163.949V164.316C126.961 164.316 126.777 167.07 128.25 165.601V165.785ZM128.619 165.418C128.066 164.867 129.355 162.848 129.723 163.215C130.276 163.765 128.987 165.785 128.619 165.418ZM128.803 165.234C129.355 164.867 129.908 163.215 129.355 163.398C128.619 163.949 128.434 165.234 128.803 165.234ZM131.381 162.48C131.196 162.48 131.012 162.664 130.828 162.848C130.46 163.215 130.644 163.398 131.012 163.398C131.749 163.398 131.381 164.133 130.828 164.5C130.644 164.683 130.092 164.683 130.092 164.5C130.092 164.5 130.092 164.316 130.276 164.316C130.828 164.316 131.565 163.398 130.828 163.398C130.644 163.398 130.46 163.398 130.46 163.215C130.46 162.848 131.012 162.297 131.196 162.113C131.565 161.93 131.565 162.48 131.381 162.48ZM134.695 160.278C134.695 160.461 134.695 161.195 134.695 161.563C134.695 161.746 134.695 161.93 134.879 161.746V161.93C134.695 162.113 134.511 162.113 134.511 161.746C134.327 162.113 134.143 162.297 133.959 162.48C132.854 163.031 133.038 161.012 133.959 160.461C134.143 160.278 134.511 160.278 134.511 160.461C134.511 160.278 134.511 160.278 134.511 160.094L134.695 160.278ZM133.774 162.48C133.959 162.297 134.143 161.93 134.327 161.746C134.511 161.195 134.327 160.828 133.774 161.012C133.038 161.379 133.038 162.848 133.774 162.48ZM143.35 154.587C143.902 154.404 144.455 154.587 144.455 155.138C144.455 155.689 144.271 156.056 143.902 156.423C143.718 156.606 143.534 156.79 143.35 156.973C143.166 157.157 143.35 157.524 143.166 157.708C143.166 157.708 143.166 157.708 143.166 157.524C143.166 157.157 143.166 156.973 142.797 157.157C142.613 157.341 142.429 157.341 142.061 157.157C141.877 156.973 141.877 156.79 141.877 156.423C141.877 156.056 142.061 155.689 142.245 155.321C142.429 155.138 142.613 154.954 142.797 154.771C142.982 154.771 143.166 154.587 143.35 154.587ZM142.982 155.321C142.797 155.321 142.613 155.505 142.429 155.689C142.245 155.872 142.245 156.239 142.245 156.423C142.245 157.157 142.982 156.973 142.982 156.423C142.982 156.239 143.166 155.505 142.982 155.321ZM143.534 156.423C143.718 156.423 143.902 156.239 144.086 155.872C144.086 155.689 144.271 155.138 144.086 154.954C143.902 154.771 143.534 154.771 143.35 154.954C143.166 155.138 143.166 155.872 143.35 156.056C143.35 156.239 143.35 156.423 143.534 156.423ZM119.043 168.538C119.596 168.355 120.148 168.538 120.148 169.089C120.148 169.64 119.964 170.007 119.596 170.374C119.411 170.557 119.227 170.741 119.043 170.924C118.859 171.108 119.043 171.475 118.859 171.659C118.859 171.659 118.859 171.659 118.859 171.475C118.859 171.108 118.859 170.924 118.491 171.108C118.307 171.292 118.122 171.292 117.754 171.108C117.57 170.924 117.57 170.557 117.57 170.374C117.57 170.007 117.754 169.64 117.938 169.272C118.122 169.089 118.307 168.905 118.491 168.722C118.675 168.722 118.859 168.722 119.043 168.538ZM118.491 169.456C118.307 169.456 118.122 169.64 117.938 169.823C117.938 170.007 117.938 170.19 117.938 170.557C117.938 171.292 118.675 171.108 118.675 170.557C118.675 170.19 118.675 169.456 118.491 169.456C118.675 169.456 118.491 169.456 118.491 169.456ZM119.043 170.374C119.227 170.374 119.411 170.19 119.596 169.823C119.596 169.64 119.78 169.089 119.596 168.905C119.411 168.722 119.043 168.722 118.859 168.905C118.675 169.089 118.675 169.823 118.859 170.007C118.859 170.374 119.043 170.374 119.043 170.374ZM145.56 154.771C147.033 153.853 146.849 154.036 146.48 154.404C144.271 155.872 144.639 155.505 145.56 154.771ZM145.007 154.587C145.007 154.587 144.823 154.587 145.007 154.587C144.823 154.404 146.48 153.302 146.664 153.302C147.401 152.935 145.744 154.22 145.007 154.587ZM147.401 154.404C147.953 154.036 148.506 153.486 148.506 153.486C149.058 153.119 147.033 155.138 147.033 154.404C147.033 154.22 147.401 152.384 147.401 152.201C147.401 152.017 147.401 152.017 147.401 152.017C148.138 152.568 147.033 154.771 147.401 154.404ZM149.611 151.099C149.611 151.099 149.611 150.916 149.611 151.099C149.795 151.099 149.795 151.099 149.611 151.099C149.795 152.384 148.69 155.505 149.427 152.568C149.611 151.283 149.611 151.099 149.611 151.099ZM161.027 141.003C161.027 141.187 160.291 141.554 160.107 141.738C160.107 141.921 160.107 142.105 159.923 142.288C159.738 142.839 159.554 143.206 160.843 142.105C161.212 141.738 161.212 141.921 160.659 142.472C158.634 144.124 159.923 141.921 159.923 140.82C159.923 140.636 160.291 140.269 160.659 140.269C161.948 139.535 161.396 140.085 160.107 140.82C160.107 141.003 159.923 141.554 159.923 141.738C160.107 141.37 161.027 140.82 161.027 141.003ZM162.132 139.718C162.316 139.718 161.764 142.105 161.58 141.738L161.948 140.085C161.948 140.085 161.948 139.718 162.132 139.718ZM162.316 139.168C162.132 139.168 161.948 139.168 162.132 138.984C162.316 138.801 162.501 139.168 162.316 139.168ZM164.342 139.351C164.526 139.168 164.526 139.168 164.342 139.351C164.342 139.535 162.685 140.636 162.685 140.636C162.501 140.453 164.158 139.351 164.342 139.351ZM164.158 138.801C161.58 140.636 163.053 139.168 164.526 138.433C164.71 138.25 164.71 138.25 164.158 138.801ZM165.079 138.984C165.999 136.047 166.183 136.598 166.552 137.699C166.92 138.617 166.92 138.617 166.183 139.168C164.526 140.453 164.894 139.902 165.079 138.984ZM165.999 137.148C165.631 137.883 165.263 138.984 165.079 139.718C165.447 139.535 166.183 138.984 166.552 138.617C166.368 138.066 166.183 137.516 165.999 137.148ZM169.498 134.762V134.946C170.971 134.211 170.971 136.414 169.498 137.332V137.516L169.13 137.699V137.516C167.657 138.25 167.657 136.047 169.13 135.129V134.946L169.498 134.762ZM169.13 135.313C168.209 135.863 168.025 137.699 169.13 137.148V135.313ZM169.498 137.148C170.419 136.414 170.603 134.762 169.498 135.313V137.148ZM161.948 145.042C162.132 144.858 162.132 145.042 161.948 145.225C161.764 145.409 161.396 145.592 161.212 145.776C161.212 146.143 160.843 146.877 161.027 146.877C161.58 146.51 162.132 145.96 162.132 145.96C162.501 145.776 161.212 147.061 160.843 147.061C160.659 147.061 160.843 146.51 160.843 146.327C161.396 144.491 160.843 144.491 162.501 143.757C162.685 143.573 162.869 143.757 162.132 144.124C161.948 144.307 161.764 144.307 161.764 144.491C161.58 144.491 161.58 144.675 161.58 144.675C161.58 144.858 161.396 145.409 161.396 145.592C161.396 145.409 161.764 145.225 161.948 145.042ZM163.237 143.757C163.421 143.757 162.869 145.776 162.685 145.96C162.685 145.96 162.501 145.96 162.685 145.776C162.869 144.675 162.869 144.858 163.053 144.307C163.053 144.124 163.053 143.757 163.237 143.757ZM163.421 143.023C163.605 143.39 163.053 143.39 163.237 143.023C163.421 142.839 163.421 142.839 163.421 143.023ZM165.631 143.206C165.631 143.206 165.079 143.757 164.894 143.757C164.894 143.757 163.79 144.675 163.605 144.491C163.605 144.491 165.631 143.023 165.631 143.206ZM165.631 142.472L165.263 142.655C162.869 144.675 163.79 143.39 165.631 142.472C165.815 142.288 165.815 142.472 165.631 142.472ZM166.183 141.37C167.841 140.085 168.025 141.187 167.288 141.921C168.209 141.554 168.025 143.206 166.183 143.94V141.37ZM166.552 142.288C167.841 141.554 167.657 140.636 166.552 141.37V142.288ZM166.552 143.573C166.92 143.39 167.472 143.023 167.472 142.472C167.472 141.921 166.92 142.288 166.552 142.472V143.573ZM168.025 142.839C168.025 142.839 168.025 142.655 168.025 142.839C168.577 140.453 168.577 139.718 168.577 139.718C168.577 139.718 168.761 139.718 168.761 139.902C168.761 140.453 168.577 141.37 168.393 142.655C168.209 142.472 168.209 142.839 168.025 142.839ZM170.603 139.535C170.971 139.902 170.787 141.37 169.866 141.921C169.498 142.105 169.13 142.105 169.13 141.554C169.13 141.37 169.13 140.636 169.13 140.453L169.498 140.269C169.498 140.269 169.498 141.187 169.498 141.37C169.498 141.738 169.682 141.738 169.866 141.738C170.419 141.37 170.419 140.269 170.235 139.902L170.603 139.535ZM120.148 173.127C120.148 173.127 119.964 173.311 119.964 173.494C119.78 173.678 119.411 174.596 119.227 174.779C119.411 174.963 120.148 175.33 119.964 175.514C119.78 175.697 119.227 175.146 119.227 174.963C118.859 175.697 118.675 176.064 118.675 176.248C118.491 176.615 118.307 176.431 118.491 176.431C118.491 176.431 118.675 176.064 119.227 174.963C119.043 174.779 118.491 174.045 118.675 173.862H118.859C118.859 174.045 119.043 174.229 119.227 174.596C119.411 174.229 119.78 173.494 119.964 173.311C119.964 172.944 120.148 172.944 120.148 173.127ZM120.7 174.779C120.7 174.963 121.621 174.229 121.805 174.229C122.358 173.678 121.805 174.596 120.885 175.146C120.7 175.33 120.516 175.33 120.516 175.146L121.069 172.76C121.437 172.209 120.7 174.412 120.7 174.779ZM123.094 172.76C124.567 171.842 124.383 172.026 124.015 172.393C121.805 173.862 122.174 173.311 123.094 172.76ZM124.383 171.292L124.015 171.475C121.253 173.494 122.726 172.026 124.383 171.292C124.383 171.108 124.383 171.108 124.383 171.292ZM126.225 171.659C126.593 171.475 126.777 170.19 126.225 170.007L126.593 169.823C126.777 169.823 126.961 170.19 126.961 170.557C126.961 171.842 126.041 172.393 125.856 171.842C125.856 172.026 125.672 172.393 125.304 172.393C124.567 172.944 124.383 171.475 124.936 170.741L125.304 170.557C124.936 171.108 124.936 172.393 125.304 172.209C125.672 172.026 125.672 171.292 125.672 170.924L126.041 170.741C126.041 171.108 125.856 171.842 126.225 171.659ZM127.698 170.741C128.25 170.374 128.803 169.823 128.803 169.823C128.987 169.64 128.619 170.007 128.434 170.374C128.066 170.741 127.33 171.292 127.33 170.924C127.33 170.924 127.882 168.171 127.698 168.538C127.698 168.538 127.698 168.355 127.882 168.538C128.25 168.722 127.33 171.108 127.698 170.741ZM131.196 167.987C131.196 167.987 130.644 168.538 130.46 168.538C130.46 168.538 129.355 169.456 129.171 169.272C129.171 169.272 131.196 167.804 131.196 167.987ZM129.539 168.538C129.355 168.538 129.355 168.538 129.539 168.538C129.355 168.355 131.012 167.253 131.196 167.253C131.933 166.702 130.092 168.171 129.539 168.538ZM132.301 166.335L132.117 166.519C131.933 166.519 132.67 165.418 133.038 165.601C133.774 165.968 132.301 167.804 131.749 168.355C131.933 168.171 132.854 167.62 133.038 167.437H133.222C133.222 167.62 132.117 168.355 131.933 168.355H131.749C131.749 168.355 131.749 168.171 131.933 168.171C132.301 167.804 132.301 167.62 132.67 167.253C133.406 165.968 133.038 165.234 132.301 166.335ZM134.327 165.418C133.038 166.152 134.511 164.867 135.8 164.316C135.984 164.133 136.168 164.316 135.432 164.683V164.867C135.248 165.234 135.248 165.968 135.432 166.335C135.616 166.519 135.248 166.702 135.248 166.519C135.063 166.152 135.248 165.234 135.432 164.867C135.248 165.05 134.879 165.234 134.511 165.418C134.511 165.601 134.511 165.968 134.511 166.519C134.327 167.804 133.774 167.804 134.143 167.253C134.327 166.886 134.511 166.335 134.511 165.785C134.327 165.601 134.327 165.418 134.327 165.418ZM136.537 165.785C137.089 165.418 137.641 164.867 137.641 164.867C138.194 164.5 136.168 166.519 136.168 165.785C136.168 165.785 136.721 163.031 136.537 163.398C136.537 163.398 136.537 163.215 136.721 163.398C137.089 163.765 136.168 165.968 136.537 165.785ZM138.194 163.215C138.93 165.05 138.378 163.765 138.746 164.5C138.93 163.949 139.299 163.215 139.299 162.664L139.667 162.48C139.667 163.031 139.299 164.133 138.93 164.683L138.562 164.867L137.826 163.398L138.194 163.215ZM140.219 147.428C140.219 147.428 140.219 147.245 139.299 149.08C139.299 149.08 139.483 149.264 139.667 149.264C140.404 149.814 140.035 149.998 139.115 149.264C138.93 149.631 138.194 151.099 138.194 150.732C138.194 150.732 138.562 149.998 138.93 149.264C138.562 148.897 138.378 148.529 138.378 148.346C138.378 148.162 138.562 148.162 138.562 148.346C138.562 148.529 138.746 148.713 138.93 149.08C139.115 148.713 139.483 147.979 139.667 147.795C140.035 147.245 140.219 147.428 140.219 147.428ZM141.508 147.061C141.693 146.877 141.877 147.061 141.877 147.061C141.877 147.245 141.877 147.245 141.693 147.061C141.14 146.877 140.035 149.814 141.324 148.529L141.693 148.162C142.061 147.979 141.14 149.08 140.588 149.08C140.404 149.08 140.404 148.897 140.404 148.713C140.404 148.529 141.14 147.428 141.508 147.061ZM143.902 146.51C144.086 146.327 144.271 146.51 143.902 146.694C140.772 148.897 142.429 147.428 143.902 146.51ZM144.086 145.776L143.718 145.96C142.982 146.51 142.429 146.877 142.245 146.877H142.061C142.245 146.877 143.902 145.776 144.086 145.776C144.271 145.592 144.271 145.776 144.086 145.776ZM144.823 146.51C144.823 145.96 145.007 145.225 145.007 144.675C145.007 144.491 145.191 144.491 145.191 144.675C145.007 146.877 144.639 147.795 144.823 146.51ZM145.56 146.877C145.375 146.877 146.849 142.839 146.849 143.023C146.849 142.839 147.033 143.023 147.033 143.206L145.744 146.694C145.744 146.877 145.744 147.061 145.56 146.877ZM148.874 144.675C149.242 144.491 149.427 143.206 148.874 143.023L149.242 142.839C149.427 142.839 149.611 143.206 149.611 143.573C149.611 144.858 148.69 145.409 148.506 144.858C148.506 145.042 148.322 145.409 147.953 145.409C147.217 145.96 147.033 144.491 147.585 143.757L147.953 143.573C147.769 143.94 147.585 144.307 147.585 144.675C147.585 145.592 148.322 145.225 148.322 144.491V143.757L148.69 143.573C148.506 144.124 148.322 144.858 148.874 144.675ZM151.636 141.003C151.452 141.003 151.084 141.37 151.084 141.554C149.795 143.39 150.531 144.124 151.452 143.023C152.189 142.105 151.636 143.39 150.9 143.757C149.427 144.491 150.347 141.554 151.636 141.003C151.636 140.82 151.82 141.003 151.636 141.003ZM138.746 152.751C139.115 152.568 138.378 155.505 138.378 155.321C138.194 155.321 138.562 154.22 138.562 154.036C138.746 152.935 138.746 152.751 138.746 152.751ZM141.693 152.568C141.508 153.669 141.14 153.853 141.324 153.302C141.693 152.201 141.693 151.099 140.956 152.751C140.219 154.036 140.035 155.138 140.404 153.302C140.588 152.568 140.404 152.201 140.035 153.119C139.851 153.486 139.115 154.954 139.115 154.954C138.93 155.138 139.299 153.669 139.299 153.486C139.299 152.751 139.667 152.751 139.299 154.587C139.483 154.22 140.035 152.751 140.404 152.384C140.588 152.384 140.772 152.384 140.772 152.751C140.772 152.935 140.772 153.119 140.588 153.302C140.772 152.751 140.956 152.384 141.14 152.201C141.693 151.283 142.061 151.283 141.693 152.568ZM143.718 151.65C142.982 153.302 141.693 152.935 143.166 150.916C143.902 149.814 144.271 150.365 144.086 150.916C144.086 151.467 143.902 151.099 143.902 151.834C143.902 152.017 143.902 152.017 143.718 152.017C143.718 152.201 143.718 151.65 143.718 151.65ZM143.902 150.916C143.902 150.732 143.902 150.732 143.902 150.549C143.718 150.365 143.35 150.732 143.35 151.099C141.877 153.119 143.166 152.935 143.902 150.916ZM145.56 151.099C145.56 151.099 145.375 151.099 145.007 150.732C144.823 151.099 144.271 152.201 144.271 151.834L145.007 150.732C144.823 150.549 144.455 150.182 144.639 149.998C144.639 149.998 144.823 149.814 144.823 149.998C144.823 150.182 145.007 150.365 145.191 150.549C145.191 150.365 145.744 149.264 145.928 149.264C146.296 149.08 145.744 149.814 145.56 150.182C145.375 150.365 145.375 150.732 145.191 150.732C145.928 151.283 144.823 150.182 145.56 151.099C145.744 150.916 145.744 151.099 145.56 151.099ZM145.928 151.099C145.928 151.099 147.217 147.061 147.217 147.245C147.401 147.428 146.849 148.529 146.849 148.713C146.48 149.631 146.48 149.998 146.112 150.916C146.112 151.099 146.112 151.283 145.928 151.099ZM149.795 146.694C149.427 147.428 149.427 147.795 149.058 148.529C149.058 148.713 148.69 149.631 148.506 149.814H148.322C148.138 149.631 148.138 149.08 148.138 148.713L147.953 148.897C147.585 149.447 147.585 149.264 147.769 148.897C147.953 148.529 148.138 148.346 148.138 148.713C148.138 148.897 148.138 148.897 148.138 149.08C148.138 149.264 148.138 149.264 148.138 149.447C148.138 149.631 148.138 149.631 148.322 149.814C148.69 148.897 148.874 148.162 149.242 147.061C149.979 145.96 149.979 146.143 149.795 146.694ZM149.979 146.51L149.795 146.694C149.611 146.694 149.795 146.327 149.979 146.327C150.716 145.409 151.452 145.96 150.531 147.245C150.163 147.795 149.979 148.162 149.611 148.713C149.611 148.713 149.979 148.529 150.163 148.346C151.268 147.612 151.084 147.795 150.347 148.346C149.242 149.08 149.058 149.08 149.795 148.162C151.268 146.143 150.716 145.592 149.979 146.51ZM151.452 148.162C151.452 147.979 151.82 147.612 151.636 147.612H151.452C151.452 147.428 151.82 147.245 151.82 147.612C151.82 147.795 151.82 147.979 151.636 148.162C151.268 148.529 151.084 148.713 151.452 148.162ZM144.639 161.379C144.639 161.563 143.35 162.48 143.166 162.48C142.613 162.297 144.639 160.278 144.639 159.727L144.086 159.911C143.902 160.094 143.35 160.461 143.35 160.278C143.35 159.911 145.375 158.809 144.823 160.094C144.823 160.278 143.35 162.297 143.35 162.297C143.35 162.48 144.639 161.195 144.639 161.379ZM145.744 159.911C148.138 158.258 146.48 159.727 145.007 160.645C145.007 160.461 145.744 160.094 145.744 159.911ZM147.033 158.626L146.664 158.809C144.086 160.645 145.191 159.543 147.033 158.626C147.033 158.442 147.033 158.442 147.033 158.626ZM149.611 156.79C149.058 158.075 148.506 159.543 148.506 159.543C148.506 159.727 148.322 159.911 148.138 159.911C147.953 159.911 147.769 158.993 147.769 158.809C147.585 158.993 147.585 159.176 147.585 159.176C147.401 159.543 147.401 158.809 147.953 158.626C148.138 158.442 148.138 158.809 148.138 158.993C148.138 159.176 148.138 159.543 148.322 159.727C148.69 158.809 148.874 158.075 149.242 156.973C149.611 156.239 149.795 156.239 149.611 156.79ZM149.795 158.626H150.347C150.347 158.809 149.795 158.993 149.427 158.809C148.69 158.442 149.242 156.973 149.611 156.239C150.531 154.404 150.9 154.587 150.716 154.954C150.347 155.321 150.163 155.689 149.795 156.056C149.427 157.157 148.874 158.626 149.795 158.626ZM152.741 154.587C152.741 154.587 152.741 154.404 151.82 156.239C151.82 156.239 152.005 156.423 152.189 156.423C152.925 156.973 152.557 157.157 151.636 156.423C151.452 156.79 150.716 158.258 150.716 157.891C150.716 157.891 151.084 157.157 151.452 156.423C151.268 156.056 151.084 155.872 151.084 155.505C151.084 155.321 151.268 155.321 151.268 155.505C151.268 155.689 151.452 155.872 151.636 156.239C151.82 155.872 152.189 155.138 152.373 154.954C152.741 154.404 152.925 154.587 152.741 154.587ZM154.214 154.22C154.583 154.036 154.767 154.404 154.398 154.404C153.846 154.22 152.557 157.524 154.214 155.689C154.398 155.505 154.583 155.505 154.214 155.872C153.846 156.239 153.294 156.606 153.294 156.056C153.109 155.689 153.846 154.587 154.214 154.22ZM154.951 154.771C154.767 154.771 156.056 153.669 156.056 153.853C156.056 154.036 154.951 154.771 154.951 154.771ZM158.265 151.467C158.265 151.467 158.081 151.65 158.081 151.834C157.897 152.017 157.529 152.935 157.345 153.119C157.345 153.119 157.529 153.302 157.713 153.302C158.449 153.853 158.081 153.853 157.713 153.669C157.529 153.669 157.345 153.486 157.161 153.302C156.24 155.138 156.24 154.771 156.24 154.587C156.424 154.22 156.792 153.486 156.976 153.119C156.792 152.935 156.608 152.751 156.608 152.384C156.608 152.201 156.792 152.201 156.792 152.384C156.792 152.568 156.976 152.751 157.161 153.119C157.345 152.751 157.713 152.017 157.897 151.834C158.265 151.283 158.45 151.467 158.265 151.467ZM159.002 153.119C159.554 152.751 160.107 152.201 160.107 152.201C160.659 151.834 158.634 153.853 158.634 153.119C158.634 153.119 159.186 150.365 159.002 150.732C159.002 150.732 159.002 150.549 159.186 150.732C159.554 151.099 158.634 153.486 159.002 153.119ZM160.291 152.935C160.291 152.935 161.396 151.467 161.58 150.549C161.764 150.182 161.948 149.264 161.58 149.08C161.58 149.08 161.396 149.08 161.212 148.897C161.027 148.897 161.212 148.713 161.212 148.713C161.764 148.346 162.501 149.447 161.212 151.65C160.475 152.935 160.291 152.935 160.291 152.935ZM163.237 148.897L163.053 149.08C162.869 149.08 163.053 148.713 163.237 148.713C163.974 147.795 164.894 148.346 163.421 150.365C163.237 150.549 163.053 150.916 162.869 151.099C163.053 151.099 164.158 149.998 164.158 150.182C164.158 150.365 163.053 151.099 162.869 151.099C162.685 151.099 162.685 151.099 162.685 151.099C162.685 150.916 163.053 150.549 163.237 150.365C164.526 148.529 163.79 147.979 163.237 148.897ZM165.815 148.346C165.815 148.529 165.815 148.713 165.631 148.897C165.631 148.897 165.631 149.264 165.447 149.264C165.447 149.264 165.447 149.264 165.447 149.08C165.447 149.264 165.447 149.08 165.815 148.346C165.631 148.529 164.894 148.897 164.894 148.897C164.894 148.897 164.71 148.713 164.894 148.713C165.815 148.162 165.631 148.346 165.815 147.428C165.815 147.245 165.815 147.245 165.999 147.245C166.183 147.245 165.999 147.795 165.999 147.979C166.183 147.795 166.736 147.428 166.92 147.428C166.736 147.428 166.92 147.612 165.815 148.346ZM166.92 148.713C166.736 148.713 167.104 147.795 167.104 147.612C167.288 147.061 167.288 146.694 167.288 146.51C166.92 146.51 167.841 145.776 168.393 145.776C168.761 145.776 168.577 146.327 168.393 146.51C168.209 146.877 168.025 147.061 167.657 147.428C167.472 147.612 167.288 147.612 168.025 147.795C168.025 147.795 168.209 147.795 168.393 147.795C168.577 147.795 168.577 147.979 168.393 147.979C168.209 148.162 167.472 147.795 167.288 147.612C167.288 147.795 167.288 147.795 167.288 147.979C167.288 148.162 167.288 148.346 167.104 148.529C167.104 148.529 167.104 148.713 166.92 148.713ZM167.472 147.428C167.657 147.061 168.577 146.51 168.577 145.96C168.577 145.592 168.025 145.96 167.657 146.327C167.657 146.51 167.472 147.245 167.472 147.428ZM169.682 145.042L169.498 145.225C169.314 145.225 170.05 144.124 170.419 144.307C170.603 144.491 170.603 144.858 170.419 145.225C170.235 145.592 169.866 146.143 169.682 146.51C169.498 146.694 169.314 147.061 169.13 147.245C169.314 147.061 170.235 146.51 170.419 146.327H170.603C170.603 146.51 169.498 147.428 169.13 147.428C168.946 147.428 169.314 146.877 169.498 146.694C169.866 146.327 170.05 145.96 170.235 145.592C170.419 145.225 170.419 144.675 170.05 144.858C170.05 144.858 169.866 145.042 169.682 145.042Z" fill="white"/>
<path d="M135.432 210.208L118.123 200.295C118.123 200.112 117.938 200.112 117.938 199.745L135.248 209.657C135.248 210.024 135.432 210.208 135.432 210.208Z" fill="#B09529"/>
<path d="M135.248 209.841L117.938 199.744V197.542L135.248 207.454V209.841Z" fill="#D3AB34"/>
<path d="M135.984 206.353L118.675 196.44L131.197 189.098L148.506 199.194L135.984 206.353Z" fill="#FFCD39"/>
<path d="M135.248 207.454L117.938 197.542C117.938 197.174 118.307 196.624 118.675 196.44L135.984 206.353C135.616 206.536 135.248 207.087 135.248 207.454Z" fill="#EEC23E"/>
<path d="M135.984 210.208C135.616 210.391 135.248 210.208 135.248 209.84V207.454C135.248 207.087 135.616 206.536 135.984 206.353L148.506 199.194V199.561L148.138 199.744L147.401 201.213L148.138 202.498L148.506 202.681V202.865L135.984 210.208Z" fill="#B09529"/>
<path d="M135.432 209.841C135.432 210.024 135.432 210.024 135.432 210.024H135.616L148.138 202.865L147.769 202.682L147.033 201.58L147.769 199.745L135.8 206.72C135.616 206.72 135.432 206.904 135.432 207.087C135.248 207.271 135.248 207.454 135.248 207.638L135.432 209.841Z" fill="#B09529"/>
<path d="M148.138 199.561L136.168 206.536C135.984 206.536 135.8 206.72 135.8 206.904C135.616 207.087 135.616 207.271 135.616 207.454V209.657L148.138 202.498V199.561Z" fill="#FFFFFA"/>
<path d="M126.409 195.89L130.645 193.504L130.276 193.32L126.041 195.706L126.409 195.89Z" fill="#60522B"/>
<path d="M126.225 197.175L133.038 193.32L132.67 193.136L125.857 196.991L126.225 197.175Z" fill="#60522B"/>
<path d="M127.33 197.909L133.959 194.054L133.591 193.871L126.962 197.726L127.33 197.909Z" fill="#60522B"/>
</g>
</svg>
