<svg width="28" height="28" viewBox="0 0 28 28" fill="none" xmlns="http://www.w3.org/2000/svg">
<path d="M24.5 9.33332C24.4959 8.88621 24.3634 8.44969 24.1183 8.07572C23.8733 7.70174 23.5259 7.40606 23.1176 7.22386C22.7092 7.04167 22.2572 6.98063 21.8151 7.04801C21.3731 7.1154 20.9597 7.30836 20.6243 7.60395C20.2888 7.89954 20.0453 8.28529 19.9227 8.71531C19.8002 9.14532 19.8038 9.60149 19.9331 10.0295C20.0625 10.4575 20.312 10.8394 20.6522 11.1296C20.9923 11.4199 21.4086 11.6063 21.8517 11.6667C22.0968 12.3433 22.1999 13.0632 22.1545 13.7814C22.1091 14.4997 21.9161 15.2009 21.5877 15.8412C21.2593 16.4816 20.8025 17.0475 20.2457 17.5035C19.689 17.9595 19.0442 18.2959 18.3517 18.4917C18.044 17.7835 17.5107 17.1969 16.835 16.8233C17.802 15.6236 18.4098 14.1749 18.5883 12.6444C18.7669 11.1139 18.5087 9.5641 17.8438 8.17409C17.1788 6.78407 16.1342 5.61053 14.8306 4.78904C13.527 3.96754 12.0175 3.53162 10.4767 3.53162C8.9358 3.53162 7.42636 3.96754 6.12273 4.78904C4.81911 5.61053 3.77449 6.78407 3.10955 8.17409C2.44461 9.5641 2.18648 11.1139 2.36499 12.6444C2.5435 14.1749 3.15135 15.6236 4.11834 16.8233C3.58283 17.1243 3.13597 17.5609 2.82264 18.0892C2.50931 18.6176 2.34056 19.2191 2.33334 19.8333V21C2.33334 21.9282 2.70208 22.8185 3.35846 23.4749C4.01484 24.1312 4.90508 24.5 5.83334 24.5H15.1667C16.0949 24.5 16.9852 24.1312 17.6415 23.4749C18.2979 22.8185 18.6667 21.9282 18.6667 21V20.7783C19.7138 20.5338 20.6967 20.0683 21.5494 19.4131C22.402 18.7579 23.1049 17.928 23.6108 16.9791C24.1167 16.0302 24.4141 14.9842 24.4829 13.911C24.5518 12.8379 24.3905 11.7624 24.01 10.7567C24.3261 10.3494 24.4984 9.84887 24.5 9.33332ZM16.3333 21C16.3333 21.3094 16.2104 21.6062 15.9916 21.8249C15.7728 22.0437 15.4761 22.1667 15.1667 22.1667H5.83334C5.52392 22.1667 5.22717 22.0437 5.00838 21.8249C4.78959 21.6062 4.66667 21.3094 4.66667 21V19.8333C4.66667 19.5239 4.78959 19.2272 5.00838 19.0084C5.22717 18.7896 5.52392 18.6667 5.83334 18.6667H6.31167C7.57522 19.4304 9.02356 19.8341 10.5 19.8341C11.9764 19.8341 13.4248 19.4304 14.6883 18.6667H15.1667C15.4761 18.6667 15.7728 18.7896 15.9916 19.0084C16.2104 19.2272 16.3333 19.5239 16.3333 19.8333V21ZM10.5 17.5C9.34628 17.5 8.21846 17.1579 7.25918 16.5169C6.29989 15.8759 5.55222 14.9649 5.1107 13.899C4.66919 12.8331 4.55367 11.6602 4.77875 10.5286C5.00384 9.39707 5.55941 8.35767 6.37521 7.54187C7.19102 6.72606 8.23042 6.17049 9.36198 5.94541C10.4935 5.72033 11.6664 5.83585 12.7323 6.27736C13.7982 6.71887 14.7093 7.46654 15.3502 8.42583C15.9912 9.38512 16.3333 10.5129 16.3333 11.6667C16.3333 12.4327 16.1825 13.1912 15.8893 13.899C15.5961 14.6067 15.1665 15.2498 14.6248 15.7914C14.0831 16.3331 13.4401 16.7628 12.7323 17.056C12.0246 17.3491 11.266 17.5 10.5 17.5ZM10.5 10.5C10.2693 10.5 10.0437 10.5684 9.85184 10.6966C9.65998 10.8248 9.51045 11.007 9.42214 11.2202C9.33384 11.4334 9.31074 11.668 9.35575 11.8943C9.40077 12.1206 9.51188 12.3285 9.67504 12.4916C9.83821 12.6548 10.0461 12.7659 10.2724 12.8109C10.4987 12.8559 10.7333 12.8328 10.9465 12.7445C11.1596 12.6562 11.3419 12.5067 11.47 12.3148C11.5982 12.123 11.6667 11.8974 11.6667 11.6667C11.6667 11.3572 11.5438 11.0605 11.325 10.8417C11.1062 10.6229 10.8094 10.5 10.5 10.5Z" fill="white"/>
</svg>
