<svg width="24" height="24" viewBox="0 0 24 24" fill="none" xmlns="http://www.w3.org/2000/svg">
<g clip-path="url(#clip0_55_170)">
<path d="M7.29101 20.824L3.15061 21.7443C2.61471 21.8634 2.13664 21.3853 2.25575 20.8494L3.17601 16.709C2.40154 15.2604 1.99754 13.6426 2.00001 12C2.00001 6.477 6.47701 2 12 2C17.523 2 22 6.477 22 12C22 17.523 17.523 22 12 22C10.3574 22.0025 8.73963 21.5985 7.29101 20.824ZM7.58101 18.711L8.23401 19.061C9.39256 19.6801 10.6864 20.0027 12 20C13.5823 20 15.129 19.5308 16.4446 18.6518C17.7602 17.7727 18.7855 16.5233 19.391 15.0615C19.9965 13.5997 20.155 11.9911 19.8463 10.4393C19.5376 8.88743 18.7757 7.46197 17.6569 6.34315C16.538 5.22433 15.1126 4.4624 13.5607 4.15372C12.0089 3.84504 10.4004 4.00346 8.93854 4.60896C7.47674 5.21447 6.22731 6.23984 5.34825 7.55544C4.4692 8.87103 4.00001 10.4177 4.00001 12C4.00001 13.334 4.32501 14.618 4.94001 15.766L5.28901 16.419L4.7363 18.9058C4.68866 19.1201 4.87989 19.3113 5.09425 19.2637L7.58101 18.711Z" fill="#7A67C7"/>
</g>
<defs>
<clipPath id="clip0_55_170">
<rect width="24" height="24" fill="white"/>
</clipPath>
</defs>
</svg>
