<svg width="20" height="20" viewBox="0 0 20 20" fill="none" xmlns="http://www.w3.org/2000/svg">
<path d="M19.3 8.08C19.019 7.74265 18.6674 7.47108 18.27 7.28447C17.8726 7.09786 17.439 7.00075 17 7H12.44L13 5.57C13.2329 4.94388 13.3105 4.2706 13.2261 3.60792C13.1416 2.94524 12.8977 2.31293 12.5152 1.76523C12.1327 1.21753 11.623 0.770795 11.0299 0.463342C10.4369 0.155889 9.77804 -0.0031052 9.11 -1.18513e-06C8.91764 0.000400177 8.72948 0.0562741 8.56807 0.160922C8.40666 0.265569 8.27887 0.414549 8.2 0.589999L5.35 7H3C2.20435 7 1.44129 7.31607 0.87868 7.87868C0.316071 8.44129 0 9.20435 0 10V17C0 17.7956 0.316071 18.5587 0.87868 19.1213C1.44129 19.6839 2.20435 20 3 20H15.73C16.4318 19.9998 17.1113 19.7535 17.6503 19.304C18.1893 18.8546 18.5537 18.2303 18.68 17.54L19.95 10.54C20.0286 10.1074 20.011 9.66278 19.8987 9.23767C19.7864 8.81257 19.582 8.41735 19.3 8.08ZM5 18H3C2.73478 18 2.48043 17.8946 2.29289 17.7071C2.10536 17.5196 2 17.2652 2 17V10C2 9.73478 2.10536 9.48043 2.29289 9.29289C2.48043 9.10536 2.73478 9 3 9H5V18ZM18 10.18L16.73 17.18C16.6874 17.413 16.5635 17.6232 16.3804 17.7734C16.1973 17.9236 15.9668 18.0039 15.73 18H7V8.21L9.72 2.09C9.99998 2.17162 10.26 2.31041 10.4837 2.49758C10.7073 2.68476 10.8897 2.91627 11.0194 3.17749C11.1491 3.43872 11.2232 3.72399 11.2371 4.0153C11.2509 4.30661 11.2043 4.59763 11.1 4.87L10.57 6.3C10.4571 6.60225 10.4189 6.92735 10.4589 7.24753C10.4988 7.56771 10.6156 7.87348 10.7993 8.13874C10.983 8.404 11.2282 8.62086 11.5139 8.77084C11.7996 8.92081 12.1173 8.99943 12.44 9H17C17.1469 8.99976 17.2921 9.03189 17.4252 9.09412C17.5582 9.15634 17.676 9.24712 17.77 9.36C17.8663 9.47132 17.9369 9.60254 17.9767 9.74429C18.0164 9.88604 18.0244 10.0348 18 10.18Z" fill="#DFDFE3"/>
</svg>
