<svg width="22" height="24" viewBox="0 0 22 24" fill="none" xmlns="http://www.w3.org/2000/svg">
<path d="M0.5 1.49065C0.5 0.851313 1.0215 0.333313 1.6655 0.333313H15.6667L21.5 6.16665V22.4918C21.5011 22.645 21.472 22.7969 21.4143 22.9389C21.3567 23.0809 21.2717 23.2101 21.1641 23.3192C21.0565 23.4283 20.9285 23.5151 20.7873 23.5747C20.6462 23.6343 20.4947 23.6656 20.3415 23.6666H1.6585C1.35211 23.6645 1.05885 23.5419 0.842087 23.3254C0.625321 23.1088 0.502444 22.8157 0.5 22.5093V1.49065ZM2.83333 2.66665V21.3333H19.1667V7.33331H15.6667V14.3333H8.66667V16.6666H6.33333V7.33331H14.5V2.66665H2.83333ZM8.66667 9.66665V12H13.3333V9.66665H8.66667Z" fill="#D16F9C"/>
</svg>
