<svg width="21" height="21" viewBox="0 0 21 21" fill="none" xmlns="http://www.w3.org/2000/svg">
<path d="M17 13C16.4092 13.0039 15.8266 13.1386 15.294 13.3945C14.7615 13.6504 14.2922 14.0211 13.92 14.48L8.82003 12.13C9.05982 11.3957 9.05982 10.6042 8.82003 9.86999L13.92 7.51999C14.5216 8.24596 15.3604 8.73607 16.2882 8.90383C17.216 9.07159 18.1732 8.90622 18.991 8.4369C19.8087 7.96757 20.4344 7.22447 20.7576 6.33874C21.0808 5.453 21.0807 4.48157 20.7573 3.5959C20.434 2.71022 19.8082 1.96724 18.9903 1.49806C18.1725 1.02889 17.2152 0.863686 16.2875 1.03162C15.3597 1.19955 14.521 1.68981 13.9196 2.41589C13.3181 3.14196 12.9924 4.05717 13 4.99999C13.003 5.23822 13.0265 5.47576 13.07 5.70999L7.79003 8.13999C7.22711 7.58957 6.51427 7.21751 5.74083 7.07042C4.96739 6.92333 4.16775 7.00776 3.44208 7.31312C2.71641 7.61849 2.09699 8.13121 1.66143 8.78705C1.22587 9.4429 0.99353 10.2127 0.99353 11C0.99353 11.7873 1.22587 12.5571 1.66143 13.2129C2.09699 13.8688 2.71641 14.3815 3.44208 14.6869C4.16775 14.9922 4.96739 15.0767 5.74083 14.9296C6.51427 14.7825 7.22711 14.4104 7.79003 13.86L13.07 16.29C13.0265 16.5242 13.003 16.7618 13 17C13 17.7911 13.2346 18.5645 13.6742 19.2223C14.1137 19.8801 14.7384 20.3928 15.4693 20.6955C16.2002 20.9983 17.0045 21.0775 17.7804 20.9231C18.5563 20.7688 19.269 20.3878 19.8285 19.8284C20.3879 19.269 20.7688 18.5563 20.9232 17.7804C21.0775 17.0044 20.9983 16.2002 20.6955 15.4693C20.3928 14.7384 19.8801 14.1136 19.2223 13.6741C18.5645 13.2346 17.7912 13 17 13ZM17 2.99999C17.3956 2.99999 17.7823 3.11729 18.1112 3.33705C18.4401 3.55682 18.6964 3.86917 18.8478 4.23463C18.9992 4.60008 19.0388 5.00221 18.9616 5.39017C18.8844 5.77813 18.6939 6.1345 18.4142 6.41421C18.1345 6.69391 17.7782 6.88439 17.3902 6.96156C17.0022 7.03873 16.6001 6.99913 16.2347 6.84775C15.8692 6.69638 15.5569 6.44003 15.3371 6.11113C15.1173 5.78223 15 5.39556 15 4.99999C15 4.46956 15.2107 3.96085 15.5858 3.58578C15.9609 3.21071 16.4696 2.99999 17 2.99999ZM5.00003 13C4.60447 13 4.21779 12.8827 3.88889 12.6629C3.55999 12.4432 3.30364 12.1308 3.15227 11.7654C3.00089 11.3999 2.96129 10.9978 3.03846 10.6098C3.11563 10.2218 3.30611 9.86548 3.58581 9.58578C3.86552 9.30607 4.22189 9.11559 4.60985 9.03842C4.99781 8.96125 5.39994 9.00086 5.7654 9.15223C6.13085 9.30361 6.4432 9.55995 6.66297 9.88885C6.88273 10.2178 7.00003 10.6044 7.00003 11C7.00003 11.5304 6.78931 12.0391 6.41424 12.4142C6.03917 12.7893 5.53046 13 5.00003 13ZM17 19C16.6045 19 16.2178 18.8827 15.8889 18.6629C15.56 18.4432 15.3036 18.1308 15.1523 17.7654C15.0009 17.3999 14.9613 16.9978 15.0385 16.6098C15.1156 16.2218 15.3061 15.8655 15.5858 15.5858C15.8655 15.3061 16.2219 15.1156 16.6098 15.0384C16.9978 14.9613 17.3999 15.0009 17.7654 15.1522C18.1308 15.3036 18.4432 15.56 18.663 15.8889C18.8827 16.2177 19 16.6044 19 17C19 17.5304 18.7893 18.0391 18.4142 18.4142C18.0392 18.7893 17.5305 19 17 19Z" fill="#DFDFE3"/>
</svg>
